<?xml version="1.0" encoding="utf-8"?>
<!DOCTYPE svg PUBLIC "-//W3C//DTD SVG 1.1//EN" "http://www.w3.org/Graphics/SVG/1.1/DTD/svg11.dtd">
<svg version="1.1" id="Layer_1" xmlns="http://www.w3.org/2000/svg" xmlns:xlink="http://www.w3.org/1999/xlink" x="0px" y="0px"
width="1148px" height="1148px" viewBox="0 0 1148 1148" enable-background="new 0 0 1148 1148" xml:space="preserve">
<rect x="0" y="0" width="1148" height="1148" fill="rgb(255,255,255)" /><g transform="translate(56,56)"><g transform="translate(224,0) scale(0.28,0.28)"><g transform="" style="fill: rgb(0, 0, 0);">
<rect width="100" height="100"/>
</g></g><g transform="translate(252,0) scale(0.28,0.28)"><g transform="" style="fill: rgb(0, 0, 0);">
<rect width="100" height="100"/>
</g></g><g transform="translate(280,0) scale(0.28,0.28)"><g transform="" style="fill: rgb(0, 0, 0);">
<rect width="100" height="100"/>
</g></g><g transform="translate(420,0) scale(0.28,0.28)"><g transform="" style="fill: rgb(0, 0, 0);">
<rect width="100" height="100"/>
</g></g><g transform="translate(532,0) scale(0.28,0.28)"><g transform="" style="fill: rgb(0, 0, 0);">
<rect width="100" height="100"/>
</g></g><g transform="translate(560,0) scale(0.28,0.28)"><g transform="" style="fill: rgb(0, 0, 0);">
<rect width="100" height="100"/>
</g></g><g transform="translate(588,0) scale(0.28,0.28)"><g transform="" style="fill: rgb(0, 0, 0);">
<rect width="100" height="100"/>
</g></g><g transform="translate(728,0) scale(0.28,0.28)"><g transform="" style="fill: rgb(0, 0, 0);">
<rect width="100" height="100"/>
</g></g><g transform="translate(784,0) scale(0.28,0.28)"><g transform="" style="fill: rgb(0, 0, 0);">
<rect width="100" height="100"/>
</g></g><g transform="translate(224,28) scale(0.28,0.28)"><g transform="" style="fill: rgb(0, 0, 0);">
<rect width="100" height="100"/>
</g></g><g transform="translate(308,28) scale(0.28,0.28)"><g transform="" style="fill: rgb(0, 0, 0);">
<rect width="100" height="100"/>
</g></g><g transform="translate(364,28) scale(0.28,0.28)"><g transform="" style="fill: rgb(0, 0, 0);">
<rect width="100" height="100"/>
</g></g><g transform="translate(392,28) scale(0.28,0.28)"><g transform="" style="fill: rgb(0, 0, 0);">
<rect width="100" height="100"/>
</g></g><g transform="translate(448,28) scale(0.28,0.28)"><g transform="" style="fill: rgb(0, 0, 0);">
<rect width="100" height="100"/>
</g></g><g transform="translate(476,28) scale(0.28,0.28)"><g transform="" style="fill: rgb(0, 0, 0);">
<rect width="100" height="100"/>
</g></g><g transform="translate(504,28) scale(0.28,0.28)"><g transform="" style="fill: rgb(0, 0, 0);">
<rect width="100" height="100"/>
</g></g><g transform="translate(532,28) scale(0.28,0.28)"><g transform="" style="fill: rgb(0, 0, 0);">
<rect width="100" height="100"/>
</g></g><g transform="translate(560,28) scale(0.28,0.28)"><g transform="" style="fill: rgb(0, 0, 0);">
<rect width="100" height="100"/>
</g></g><g transform="translate(588,28) scale(0.28,0.28)"><g transform="" style="fill: rgb(0, 0, 0);">
<rect width="100" height="100"/>
</g></g><g transform="translate(756,28) scale(0.28,0.28)"><g transform="" style="fill: rgb(0, 0, 0);">
<rect width="100" height="100"/>
</g></g><g transform="translate(784,28) scale(0.28,0.28)"><g transform="" style="fill: rgb(0, 0, 0);">
<rect width="100" height="100"/>
</g></g><g transform="translate(224,56) scale(0.28,0.28)"><g transform="" style="fill: rgb(0, 0, 0);">
<rect width="100" height="100"/>
</g></g><g transform="translate(252,56) scale(0.28,0.28)"><g transform="" style="fill: rgb(0, 0, 0);">
<rect width="100" height="100"/>
</g></g><g transform="translate(280,56) scale(0.28,0.28)"><g transform="" style="fill: rgb(0, 0, 0);">
<rect width="100" height="100"/>
</g></g><g transform="translate(308,56) scale(0.28,0.28)"><g transform="" style="fill: rgb(0, 0, 0);">
<rect width="100" height="100"/>
</g></g><g transform="translate(420,56) scale(0.28,0.28)"><g transform="" style="fill: rgb(0, 0, 0);">
<rect width="100" height="100"/>
</g></g><g transform="translate(448,56) scale(0.28,0.28)"><g transform="" style="fill: rgb(0, 0, 0);">
<rect width="100" height="100"/>
</g></g><g transform="translate(616,56) scale(0.28,0.28)"><g transform="" style="fill: rgb(0, 0, 0);">
<rect width="100" height="100"/>
</g></g><g transform="translate(672,56) scale(0.28,0.28)"><g transform="" style="fill: rgb(0, 0, 0);">
<rect width="100" height="100"/>
</g></g><g transform="translate(728,56) scale(0.28,0.28)"><g transform="" style="fill: rgb(0, 0, 0);">
<rect width="100" height="100"/>
</g></g><g transform="translate(756,56) scale(0.28,0.28)"><g transform="" style="fill: rgb(0, 0, 0);">
<rect width="100" height="100"/>
</g></g><g transform="translate(784,56) scale(0.28,0.28)"><g transform="" style="fill: rgb(0, 0, 0);">
<rect width="100" height="100"/>
</g></g><g transform="translate(364,84) scale(0.28,0.28)"><g transform="" style="fill: rgb(0, 0, 0);">
<rect width="100" height="100"/>
</g></g><g transform="translate(420,84) scale(0.28,0.28)"><g transform="" style="fill: rgb(0, 0, 0);">
<rect width="100" height="100"/>
</g></g><g transform="translate(588,84) scale(0.28,0.28)"><g transform="" style="fill: rgb(0, 0, 0);">
<rect width="100" height="100"/>
</g></g><g transform="translate(644,84) scale(0.28,0.28)"><g transform="" style="fill: rgb(0, 0, 0);">
<rect width="100" height="100"/>
</g></g><g transform="translate(672,84) scale(0.28,0.28)"><g transform="" style="fill: rgb(0, 0, 0);">
<rect width="100" height="100"/>
</g></g><g transform="translate(700,84) scale(0.28,0.28)"><g transform="" style="fill: rgb(0, 0, 0);">
<rect width="100" height="100"/>
</g></g><g transform="translate(728,84) scale(0.28,0.28)"><g transform="" style="fill: rgb(0, 0, 0);">
<rect width="100" height="100"/>
</g></g><g transform="translate(756,84) scale(0.28,0.28)"><g transform="" style="fill: rgb(0, 0, 0);">
<rect width="100" height="100"/>
</g></g><g transform="translate(280,112) scale(0.28,0.28)"><g transform="" style="fill: rgb(0, 0, 0);">
<rect width="100" height="100"/>
</g></g><g transform="translate(392,112) scale(0.28,0.28)"><g transform="" style="fill: rgb(0, 0, 0);">
<rect width="100" height="100"/>
</g></g><g transform="translate(448,112) scale(0.28,0.28)"><g transform="" style="fill: rgb(0, 0, 0);">
<rect width="100" height="100"/>
</g></g><g transform="translate(504,112) scale(0.28,0.28)"><g transform="" style="fill: rgb(0, 0, 0);">
<rect width="100" height="100"/>
</g></g><g transform="translate(532,112) scale(0.28,0.28)"><g transform="" style="fill: rgb(0, 0, 0);">
<rect width="100" height="100"/>
</g></g><g transform="translate(560,112) scale(0.28,0.28)"><g transform="" style="fill: rgb(0, 0, 0);">
<rect width="100" height="100"/>
</g></g><g transform="translate(616,112) scale(0.28,0.28)"><g transform="" style="fill: rgb(0, 0, 0);">
<rect width="100" height="100"/>
</g></g><g transform="translate(224,140) scale(0.28,0.28)"><g transform="" style="fill: rgb(0, 0, 0);">
<rect width="100" height="100"/>
</g></g><g transform="translate(252,140) scale(0.28,0.28)"><g transform="" style="fill: rgb(0, 0, 0);">
<rect width="100" height="100"/>
</g></g><g transform="translate(420,140) scale(0.28,0.28)"><g transform="" style="fill: rgb(0, 0, 0);">
<rect width="100" height="100"/>
</g></g><g transform="translate(476,140) scale(0.28,0.28)"><g transform="" style="fill: rgb(0, 0, 0);">
<rect width="100" height="100"/>
</g></g><g transform="translate(560,140) scale(0.28,0.28)"><g transform="" style="fill: rgb(0, 0, 0);">
<rect width="100" height="100"/>
</g></g><g transform="translate(644,140) scale(0.28,0.28)"><g transform="" style="fill: rgb(0, 0, 0);">
<rect width="100" height="100"/>
</g></g><g transform="translate(700,140) scale(0.28,0.28)"><g transform="" style="fill: rgb(0, 0, 0);">
<rect width="100" height="100"/>
</g></g><g transform="translate(756,140) scale(0.28,0.28)"><g transform="" style="fill: rgb(0, 0, 0);">
<rect width="100" height="100"/>
</g></g><g transform="translate(784,140) scale(0.28,0.28)"><g transform="" style="fill: rgb(0, 0, 0);">
<rect width="100" height="100"/>
</g></g><g transform="translate(224,168) scale(0.28,0.28)"><g transform="" style="fill: rgb(0, 0, 0);">
<rect width="100" height="100"/>
</g></g><g transform="translate(280,168) scale(0.28,0.28)"><g transform="" style="fill: rgb(0, 0, 0);">
<rect width="100" height="100"/>
</g></g><g transform="translate(336,168) scale(0.28,0.28)"><g transform="" style="fill: rgb(0, 0, 0);">
<rect width="100" height="100"/>
</g></g><g transform="translate(392,168) scale(0.28,0.28)"><g transform="" style="fill: rgb(0, 0, 0);">
<rect width="100" height="100"/>
</g></g><g transform="translate(448,168) scale(0.28,0.28)"><g transform="" style="fill: rgb(0, 0, 0);">
<rect width="100" height="100"/>
</g></g><g transform="translate(504,168) scale(0.28,0.28)"><g transform="" style="fill: rgb(0, 0, 0);">
<rect width="100" height="100"/>
</g></g><g transform="translate(560,168) scale(0.28,0.28)"><g transform="" style="fill: rgb(0, 0, 0);">
<rect width="100" height="100"/>
</g></g><g transform="translate(616,168) scale(0.28,0.28)"><g transform="" style="fill: rgb(0, 0, 0);">
<rect width="100" height="100"/>
</g></g><g transform="translate(672,168) scale(0.28,0.28)"><g transform="" style="fill: rgb(0, 0, 0);">
<rect width="100" height="100"/>
</g></g><g transform="translate(728,168) scale(0.28,0.28)"><g transform="" style="fill: rgb(0, 0, 0);">
<rect width="100" height="100"/>
</g></g><g transform="translate(784,168) scale(0.28,0.28)"><g transform="" style="fill: rgb(0, 0, 0);">
<rect width="100" height="100"/>
</g></g><g transform="translate(224,196) scale(0.28,0.28)"><g transform="" style="fill: rgb(0, 0, 0);">
<rect width="100" height="100"/>
</g></g><g transform="translate(280,196) scale(0.28,0.28)"><g transform="" style="fill: rgb(0, 0, 0);">
<rect width="100" height="100"/>
</g></g><g transform="translate(364,196) scale(0.28,0.28)"><g transform="" style="fill: rgb(0, 0, 0);">
<rect width="100" height="100"/>
</g></g><g transform="translate(392,196) scale(0.28,0.28)"><g transform="" style="fill: rgb(0, 0, 0);">
<rect width="100" height="100"/>
</g></g><g transform="translate(504,196) scale(0.28,0.28)"><g transform="" style="fill: rgb(0, 0, 0);">
<rect width="100" height="100"/>
</g></g><g transform="translate(532,196) scale(0.28,0.28)"><g transform="" style="fill: rgb(0, 0, 0);">
<rect width="100" height="100"/>
</g></g><g transform="translate(616,196) scale(0.28,0.28)"><g transform="" style="fill: rgb(0, 0, 0);">
<rect width="100" height="100"/>
</g></g><g transform="translate(644,196) scale(0.28,0.28)"><g transform="" style="fill: rgb(0, 0, 0);">
<rect width="100" height="100"/>
</g></g><g transform="translate(672,196) scale(0.28,0.28)"><g transform="" style="fill: rgb(0, 0, 0);">
<rect width="100" height="100"/>
</g></g><g transform="translate(784,196) scale(0.28,0.28)"><g transform="" style="fill: rgb(0, 0, 0);">
<rect width="100" height="100"/>
</g></g><g transform="translate(56,224) scale(0.28,0.28)"><g transform="" style="fill: rgb(0, 0, 0);">
<rect width="100" height="100"/>
</g></g><g transform="translate(84,224) scale(0.28,0.28)"><g transform="" style="fill: rgb(0, 0, 0);">
<rect width="100" height="100"/>
</g></g><g transform="translate(112,224) scale(0.28,0.28)"><g transform="" style="fill: rgb(0, 0, 0);">
<rect width="100" height="100"/>
</g></g><g transform="translate(168,224) scale(0.28,0.28)"><g transform="" style="fill: rgb(0, 0, 0);">
<rect width="100" height="100"/>
</g></g><g transform="translate(224,224) scale(0.28,0.28)"><g transform="" style="fill: rgb(0, 0, 0);">
<rect width="100" height="100"/>
</g></g><g transform="translate(280,224) scale(0.28,0.28)"><g transform="" style="fill: rgb(0, 0, 0);">
<rect width="100" height="100"/>
</g></g><g transform="translate(336,224) scale(0.28,0.28)"><g transform="" style="fill: rgb(0, 0, 0);">
<rect width="100" height="100"/>
</g></g><g transform="translate(420,224) scale(0.28,0.28)"><g transform="" style="fill: rgb(0, 0, 0);">
<rect width="100" height="100"/>
</g></g><g transform="translate(448,224) scale(0.28,0.28)"><g transform="" style="fill: rgb(0, 0, 0);">
<rect width="100" height="100"/>
</g></g><g transform="translate(476,224) scale(0.28,0.28)"><g transform="" style="fill: rgb(0, 0, 0);">
<rect width="100" height="100"/>
</g></g><g transform="translate(504,224) scale(0.28,0.28)"><g transform="" style="fill: rgb(0, 0, 0);">
<rect width="100" height="100"/>
</g></g><g transform="translate(532,224) scale(0.28,0.28)"><g transform="" style="fill: rgb(0, 0, 0);">
<rect width="100" height="100"/>
</g></g><g transform="translate(560,224) scale(0.28,0.28)"><g transform="" style="fill: rgb(0, 0, 0);">
<rect width="100" height="100"/>
</g></g><g transform="translate(616,224) scale(0.28,0.28)"><g transform="" style="fill: rgb(0, 0, 0);">
<rect width="100" height="100"/>
</g></g><g transform="translate(644,224) scale(0.28,0.28)"><g transform="" style="fill: rgb(0, 0, 0);">
<rect width="100" height="100"/>
</g></g><g transform="translate(700,224) scale(0.28,0.28)"><g transform="" style="fill: rgb(0, 0, 0);">
<rect width="100" height="100"/>
</g></g><g transform="translate(728,224) scale(0.28,0.28)"><g transform="" style="fill: rgb(0, 0, 0);">
<rect width="100" height="100"/>
</g></g><g transform="translate(784,224) scale(0.28,0.28)"><g transform="" style="fill: rgb(0, 0, 0);">
<rect width="100" height="100"/>
</g></g><g transform="translate(812,224) scale(0.28,0.28)"><g transform="" style="fill: rgb(0, 0, 0);">
<rect width="100" height="100"/>
</g></g><g transform="translate(840,224) scale(0.28,0.28)"><g transform="" style="fill: rgb(0, 0, 0);">
<rect width="100" height="100"/>
</g></g><g transform="translate(868,224) scale(0.28,0.28)"><g transform="" style="fill: rgb(0, 0, 0);">
<rect width="100" height="100"/>
</g></g><g transform="translate(952,224) scale(0.28,0.28)"><g transform="" style="fill: rgb(0, 0, 0);">
<rect width="100" height="100"/>
</g></g><g transform="translate(980,224) scale(0.28,0.28)"><g transform="" style="fill: rgb(0, 0, 0);">
<rect width="100" height="100"/>
</g></g><g transform="translate(1008,224) scale(0.28,0.28)"><g transform="" style="fill: rgb(0, 0, 0);">
<rect width="100" height="100"/>
</g></g><g transform="translate(84,252) scale(0.28,0.28)"><g transform="" style="fill: rgb(0, 0, 0);">
<rect width="100" height="100"/>
</g></g><g transform="translate(252,252) scale(0.28,0.28)"><g transform="" style="fill: rgb(0, 0, 0);">
<rect width="100" height="100"/>
</g></g><g transform="translate(280,252) scale(0.28,0.28)"><g transform="" style="fill: rgb(0, 0, 0);">
<rect width="100" height="100"/>
</g></g><g transform="translate(308,252) scale(0.28,0.28)"><g transform="" style="fill: rgb(0, 0, 0);">
<rect width="100" height="100"/>
</g></g><g transform="translate(364,252) scale(0.28,0.28)"><g transform="" style="fill: rgb(0, 0, 0);">
<rect width="100" height="100"/>
</g></g><g transform="translate(420,252) scale(0.28,0.28)"><g transform="" style="fill: rgb(0, 0, 0);">
<rect width="100" height="100"/>
</g></g><g transform="translate(532,252) scale(0.28,0.28)"><g transform="" style="fill: rgb(0, 0, 0);">
<rect width="100" height="100"/>
</g></g><g transform="translate(616,252) scale(0.28,0.28)"><g transform="" style="fill: rgb(0, 0, 0);">
<rect width="100" height="100"/>
</g></g><g transform="translate(644,252) scale(0.28,0.28)"><g transform="" style="fill: rgb(0, 0, 0);">
<rect width="100" height="100"/>
</g></g><g transform="translate(700,252) scale(0.28,0.28)"><g transform="" style="fill: rgb(0, 0, 0);">
<rect width="100" height="100"/>
</g></g><g transform="translate(784,252) scale(0.28,0.28)"><g transform="" style="fill: rgb(0, 0, 0);">
<rect width="100" height="100"/>
</g></g><g transform="translate(868,252) scale(0.28,0.28)"><g transform="" style="fill: rgb(0, 0, 0);">
<rect width="100" height="100"/>
</g></g><g transform="translate(924,252) scale(0.28,0.28)"><g transform="" style="fill: rgb(0, 0, 0);">
<rect width="100" height="100"/>
</g></g><g transform="translate(980,252) scale(0.28,0.28)"><g transform="" style="fill: rgb(0, 0, 0);">
<rect width="100" height="100"/>
</g></g><g transform="translate(84,280) scale(0.28,0.28)"><g transform="" style="fill: rgb(0, 0, 0);">
<rect width="100" height="100"/>
</g></g><g transform="translate(168,280) scale(0.28,0.28)"><g transform="" style="fill: rgb(0, 0, 0);">
<rect width="100" height="100"/>
</g></g><g transform="translate(224,280) scale(0.28,0.28)"><g transform="" style="fill: rgb(0, 0, 0);">
<rect width="100" height="100"/>
</g></g><g transform="translate(308,280) scale(0.28,0.28)"><g transform="" style="fill: rgb(0, 0, 0);">
<rect width="100" height="100"/>
</g></g><g transform="translate(364,280) scale(0.28,0.28)"><g transform="" style="fill: rgb(0, 0, 0);">
<rect width="100" height="100"/>
</g></g><g transform="translate(448,280) scale(0.28,0.28)"><g transform="" style="fill: rgb(0, 0, 0);">
<rect width="100" height="100"/>
</g></g><g transform="translate(476,280) scale(0.28,0.28)"><g transform="" style="fill: rgb(0, 0, 0);">
<rect width="100" height="100"/>
</g></g><g transform="translate(532,280) scale(0.28,0.28)"><g transform="" style="fill: rgb(0, 0, 0);">
<rect width="100" height="100"/>
</g></g><g transform="translate(560,280) scale(0.28,0.28)"><g transform="" style="fill: rgb(0, 0, 0);">
<rect width="100" height="100"/>
</g></g><g transform="translate(588,280) scale(0.28,0.28)"><g transform="" style="fill: rgb(0, 0, 0);">
<rect width="100" height="100"/>
</g></g><g transform="translate(672,280) scale(0.28,0.28)"><g transform="" style="fill: rgb(0, 0, 0);">
<rect width="100" height="100"/>
</g></g><g transform="translate(700,280) scale(0.28,0.28)"><g transform="" style="fill: rgb(0, 0, 0);">
<rect width="100" height="100"/>
</g></g><g transform="translate(728,280) scale(0.28,0.28)"><g transform="" style="fill: rgb(0, 0, 0);">
<rect width="100" height="100"/>
</g></g><g transform="translate(756,280) scale(0.28,0.28)"><g transform="" style="fill: rgb(0, 0, 0);">
<rect width="100" height="100"/>
</g></g><g transform="translate(784,280) scale(0.28,0.28)"><g transform="" style="fill: rgb(0, 0, 0);">
<rect width="100" height="100"/>
</g></g><g transform="translate(840,280) scale(0.28,0.28)"><g transform="" style="fill: rgb(0, 0, 0);">
<rect width="100" height="100"/>
</g></g><g transform="translate(924,280) scale(0.28,0.28)"><g transform="" style="fill: rgb(0, 0, 0);">
<rect width="100" height="100"/>
</g></g><g transform="translate(952,280) scale(0.28,0.28)"><g transform="" style="fill: rgb(0, 0, 0);">
<rect width="100" height="100"/>
</g></g><g transform="translate(980,280) scale(0.28,0.28)"><g transform="" style="fill: rgb(0, 0, 0);">
<rect width="100" height="100"/>
</g></g><g transform="translate(1008,280) scale(0.28,0.28)"><g transform="" style="fill: rgb(0, 0, 0);">
<rect width="100" height="100"/>
</g></g><g transform="translate(0,308) scale(0.28,0.28)"><g transform="" style="fill: rgb(0, 0, 0);">
<rect width="100" height="100"/>
</g></g><g transform="translate(56,308) scale(0.28,0.28)"><g transform="" style="fill: rgb(0, 0, 0);">
<rect width="100" height="100"/>
</g></g><g transform="translate(84,308) scale(0.28,0.28)"><g transform="" style="fill: rgb(0, 0, 0);">
<rect width="100" height="100"/>
</g></g><g transform="translate(112,308) scale(0.28,0.28)"><g transform="" style="fill: rgb(0, 0, 0);">
<rect width="100" height="100"/>
</g></g><g transform="translate(196,308) scale(0.28,0.28)"><g transform="" style="fill: rgb(0, 0, 0);">
<rect width="100" height="100"/>
</g></g><g transform="translate(252,308) scale(0.28,0.28)"><g transform="" style="fill: rgb(0, 0, 0);">
<rect width="100" height="100"/>
</g></g><g transform="translate(392,308) scale(0.28,0.28)"><g transform="" style="fill: rgb(0, 0, 0);">
<rect width="100" height="100"/>
</g></g><g transform="translate(420,308) scale(0.28,0.28)"><g transform="" style="fill: rgb(0, 0, 0);">
<rect width="100" height="100"/>
</g></g><g transform="translate(448,308) scale(0.28,0.28)"><g transform="" style="fill: rgb(0, 0, 0);">
<rect width="100" height="100"/>
</g></g><g transform="translate(532,308) scale(0.28,0.28)"><g transform="" style="fill: rgb(0, 0, 0);">
<rect width="100" height="100"/>
</g></g><g transform="translate(560,308) scale(0.28,0.28)"><g transform="" style="fill: rgb(0, 0, 0);">
<rect width="100" height="100"/>
</g></g><g transform="translate(728,308) scale(0.28,0.28)"><g transform="" style="fill: rgb(0, 0, 0);">
<rect width="100" height="100"/>
</g></g><g transform="translate(784,308) scale(0.28,0.28)"><g transform="" style="fill: rgb(0, 0, 0);">
<rect width="100" height="100"/>
</g></g><g transform="translate(840,308) scale(0.28,0.28)"><g transform="" style="fill: rgb(0, 0, 0);">
<rect width="100" height="100"/>
</g></g><g transform="translate(924,308) scale(0.28,0.28)"><g transform="" style="fill: rgb(0, 0, 0);">
<rect width="100" height="100"/>
</g></g><g transform="translate(980,308) scale(0.28,0.28)"><g transform="" style="fill: rgb(0, 0, 0);">
<rect width="100" height="100"/>
</g></g><g transform="translate(56,336) scale(0.28,0.28)"><g transform="" style="fill: rgb(0, 0, 0);">
<rect width="100" height="100"/>
</g></g><g transform="translate(112,336) scale(0.28,0.28)"><g transform="" style="fill: rgb(0, 0, 0);">
<rect width="100" height="100"/>
</g></g><g transform="translate(140,336) scale(0.28,0.28)"><g transform="" style="fill: rgb(0, 0, 0);">
<rect width="100" height="100"/>
</g></g><g transform="translate(168,336) scale(0.28,0.28)"><g transform="" style="fill: rgb(0, 0, 0);">
<rect width="100" height="100"/>
</g></g><g transform="translate(196,336) scale(0.28,0.28)"><g transform="" style="fill: rgb(0, 0, 0);">
<rect width="100" height="100"/>
</g></g><g transform="translate(364,336) scale(0.28,0.28)"><g transform="" style="fill: rgb(0, 0, 0);">
<rect width="100" height="100"/>
</g></g><g transform="translate(392,336) scale(0.28,0.28)"><g transform="" style="fill: rgb(0, 0, 0);">
<rect width="100" height="100"/>
</g></g><g transform="translate(420,336) scale(0.28,0.28)"><g transform="" style="fill: rgb(0, 0, 0);">
<rect width="100" height="100"/>
</g></g><g transform="translate(448,336) scale(0.28,0.28)"><g transform="" style="fill: rgb(0, 0, 0);">
<rect width="100" height="100"/>
</g></g><g transform="translate(560,336) scale(0.28,0.28)"><g transform="" style="fill: rgb(0, 0, 0);">
<rect width="100" height="100"/>
</g></g><g transform="translate(700,336) scale(0.28,0.28)"><g transform="" style="fill: rgb(0, 0, 0);">
<rect width="100" height="100"/>
</g></g><g transform="translate(728,336) scale(0.28,0.28)"><g transform="" style="fill: rgb(0, 0, 0);">
<rect width="100" height="100"/>
</g></g><g transform="translate(812,336) scale(0.28,0.28)"><g transform="" style="fill: rgb(0, 0, 0);">
<rect width="100" height="100"/>
</g></g><g transform="translate(840,336) scale(0.28,0.28)"><g transform="" style="fill: rgb(0, 0, 0);">
<rect width="100" height="100"/>
</g></g><g transform="translate(952,336) scale(0.28,0.28)"><g transform="" style="fill: rgb(0, 0, 0);">
<rect width="100" height="100"/>
</g></g><g transform="translate(980,336) scale(0.28,0.28)"><g transform="" style="fill: rgb(0, 0, 0);">
<rect width="100" height="100"/>
</g></g><g transform="translate(56,364) scale(0.28,0.28)"><g transform="" style="fill: rgb(0, 0, 0);">
<rect width="100" height="100"/>
</g></g><g transform="translate(140,364) scale(0.28,0.28)"><g transform="" style="fill: rgb(0, 0, 0);">
<rect width="100" height="100"/>
</g></g><g transform="translate(196,364) scale(0.28,0.28)"><g transform="" style="fill: rgb(0, 0, 0);">
<rect width="100" height="100"/>
</g></g><g transform="translate(252,364) scale(0.28,0.28)"><g transform="" style="fill: rgb(0, 0, 0);">
<rect width="100" height="100"/>
</g></g><g transform="translate(280,364) scale(0.28,0.28)"><g transform="" style="fill: rgb(0, 0, 0);">
<rect width="100" height="100"/>
</g></g><g transform="translate(308,364) scale(0.28,0.28)"><g transform="" style="fill: rgb(0, 0, 0);">
<rect width="100" height="100"/>
</g></g><g transform="translate(420,364) scale(0.28,0.28)"><g transform="" style="fill: rgb(0, 0, 0);">
<rect width="100" height="100"/>
</g></g><g transform="translate(448,364) scale(0.28,0.28)"><g transform="" style="fill: rgb(0, 0, 0);">
<rect width="100" height="100"/>
</g></g><g transform="translate(476,364) scale(0.28,0.28)"><g transform="" style="fill: rgb(0, 0, 0);">
<rect width="100" height="100"/>
</g></g><g transform="translate(532,364) scale(0.28,0.28)"><g transform="" style="fill: rgb(0, 0, 0);">
<rect width="100" height="100"/>
</g></g><g transform="translate(588,364) scale(0.28,0.28)"><g transform="" style="fill: rgb(0, 0, 0);">
<rect width="100" height="100"/>
</g></g><g transform="translate(672,364) scale(0.28,0.28)"><g transform="" style="fill: rgb(0, 0, 0);">
<rect width="100" height="100"/>
</g></g><g transform="translate(784,364) scale(0.28,0.28)"><g transform="" style="fill: rgb(0, 0, 0);">
<rect width="100" height="100"/>
</g></g><g transform="translate(812,364) scale(0.28,0.28)"><g transform="" style="fill: rgb(0, 0, 0);">
<rect width="100" height="100"/>
</g></g><g transform="translate(868,364) scale(0.28,0.28)"><g transform="" style="fill: rgb(0, 0, 0);">
<rect width="100" height="100"/>
</g></g><g transform="translate(924,364) scale(0.28,0.28)"><g transform="" style="fill: rgb(0, 0, 0);">
<rect width="100" height="100"/>
</g></g><g transform="translate(952,364) scale(0.28,0.28)"><g transform="" style="fill: rgb(0, 0, 0);">
<rect width="100" height="100"/>
</g></g><g transform="translate(0,392) scale(0.28,0.28)"><g transform="" style="fill: rgb(0, 0, 0);">
<rect width="100" height="100"/>
</g></g><g transform="translate(140,392) scale(0.28,0.28)"><g transform="" style="fill: rgb(0, 0, 0);">
<rect width="100" height="100"/>
</g></g><g transform="translate(168,392) scale(0.28,0.28)"><g transform="" style="fill: rgb(0, 0, 0);">
<rect width="100" height="100"/>
</g></g><g transform="translate(196,392) scale(0.28,0.28)"><g transform="" style="fill: rgb(0, 0, 0);">
<rect width="100" height="100"/>
</g></g><g transform="translate(224,392) scale(0.28,0.28)"><g transform="" style="fill: rgb(0, 0, 0);">
<rect width="100" height="100"/>
</g></g><g transform="translate(280,392) scale(0.28,0.28)"><g transform="" style="fill: rgb(0, 0, 0);">
<rect width="100" height="100"/>
</g></g><g transform="translate(336,392) scale(0.28,0.28)"><g transform="" style="fill: rgb(0, 0, 0);">
<rect width="100" height="100"/>
</g></g><g transform="translate(364,392) scale(0.28,0.28)"><g transform="" style="fill: rgb(0, 0, 0);">
<rect width="100" height="100"/>
</g></g><g transform="translate(392,392) scale(0.28,0.28)"><g transform="" style="fill: rgb(0, 0, 0);">
<rect width="100" height="100"/>
</g></g><g transform="translate(448,392) scale(0.28,0.28)"><g transform="" style="fill: rgb(0, 0, 0);">
<rect width="100" height="100"/>
</g></g><g transform="translate(560,392) scale(0.28,0.28)"><g transform="" style="fill: rgb(0, 0, 0);">
<rect width="100" height="100"/>
</g></g><g transform="translate(588,392) scale(0.28,0.28)"><g transform="" style="fill: rgb(0, 0, 0);">
<rect width="100" height="100"/>
</g></g><g transform="translate(644,392) scale(0.28,0.28)"><g transform="" style="fill: rgb(0, 0, 0);">
<rect width="100" height="100"/>
</g></g><g transform="translate(672,392) scale(0.28,0.28)"><g transform="" style="fill: rgb(0, 0, 0);">
<rect width="100" height="100"/>
</g></g><g transform="translate(700,392) scale(0.28,0.28)"><g transform="" style="fill: rgb(0, 0, 0);">
<rect width="100" height="100"/>
</g></g><g transform="translate(756,392) scale(0.28,0.28)"><g transform="" style="fill: rgb(0, 0, 0);">
<rect width="100" height="100"/>
</g></g><g transform="translate(840,392) scale(0.28,0.28)"><g transform="" style="fill: rgb(0, 0, 0);">
<rect width="100" height="100"/>
</g></g><g transform="translate(868,392) scale(0.28,0.28)"><g transform="" style="fill: rgb(0, 0, 0);">
<rect width="100" height="100"/>
</g></g><g transform="translate(896,392) scale(0.28,0.28)"><g transform="" style="fill: rgb(0, 0, 0);">
<rect width="100" height="100"/>
</g></g><g transform="translate(924,392) scale(0.28,0.28)"><g transform="" style="fill: rgb(0, 0, 0);">
<rect width="100" height="100"/>
</g></g><g transform="translate(980,392) scale(0.28,0.28)"><g transform="" style="fill: rgb(0, 0, 0);">
<rect width="100" height="100"/>
</g></g><g transform="translate(1008,392) scale(0.28,0.28)"><g transform="" style="fill: rgb(0, 0, 0);">
<rect width="100" height="100"/>
</g></g><g transform="translate(0,420) scale(0.28,0.28)"><g transform="" style="fill: rgb(0, 0, 0);">
<rect width="100" height="100"/>
</g></g><g transform="translate(196,420) scale(0.28,0.28)"><g transform="" style="fill: rgb(0, 0, 0);">
<rect width="100" height="100"/>
</g></g><g transform="translate(252,420) scale(0.28,0.28)"><g transform="" style="fill: rgb(0, 0, 0);">
<rect width="100" height="100"/>
</g></g><g transform="translate(336,420) scale(0.28,0.28)"><g transform="" style="fill: rgb(0, 0, 0);">
<rect width="100" height="100"/>
</g></g><g transform="translate(364,420) scale(0.28,0.28)"><g transform="" style="fill: rgb(0, 0, 0);">
<rect width="100" height="100"/>
</g></g><g transform="translate(392,420) scale(0.28,0.28)"><g transform="" style="fill: rgb(0, 0, 0);">
<rect width="100" height="100"/>
</g></g><g transform="translate(560,420) scale(0.28,0.28)"><g transform="" style="fill: rgb(0, 0, 0);">
<rect width="100" height="100"/>
</g></g><g transform="translate(756,420) scale(0.28,0.28)"><g transform="" style="fill: rgb(0, 0, 0);">
<rect width="100" height="100"/>
</g></g><g transform="translate(812,420) scale(0.28,0.28)"><g transform="" style="fill: rgb(0, 0, 0);">
<rect width="100" height="100"/>
</g></g><g transform="translate(868,420) scale(0.28,0.28)"><g transform="" style="fill: rgb(0, 0, 0);">
<rect width="100" height="100"/>
</g></g><g transform="translate(896,420) scale(0.28,0.28)"><g transform="" style="fill: rgb(0, 0, 0);">
<rect width="100" height="100"/>
</g></g><g transform="translate(1008,420) scale(0.28,0.28)"><g transform="" style="fill: rgb(0, 0, 0);">
<rect width="100" height="100"/>
</g></g><g transform="translate(0,448) scale(0.28,0.28)"><g transform="" style="fill: rgb(0, 0, 0);">
<rect width="100" height="100"/>
</g></g><g transform="translate(28,448) scale(0.28,0.28)"><g transform="" style="fill: rgb(0, 0, 0);">
<rect width="100" height="100"/>
</g></g><g transform="translate(56,448) scale(0.28,0.28)"><g transform="" style="fill: rgb(0, 0, 0);">
<rect width="100" height="100"/>
</g></g><g transform="translate(168,448) scale(0.28,0.28)"><g transform="" style="fill: rgb(0, 0, 0);">
<rect width="100" height="100"/>
</g></g><g transform="translate(196,448) scale(0.28,0.28)"><g transform="" style="fill: rgb(0, 0, 0);">
<rect width="100" height="100"/>
</g></g><g transform="translate(308,448) scale(0.28,0.28)"><g transform="" style="fill: rgb(0, 0, 0);">
<rect width="100" height="100"/>
</g></g><g transform="translate(364,448) scale(0.28,0.28)"><g transform="" style="fill: rgb(0, 0, 0);">
<rect width="100" height="100"/>
</g></g><g transform="translate(448,448) scale(0.28,0.28)"><g transform="" style="fill: rgb(0, 0, 0);">
<rect width="100" height="100"/>
</g></g><g transform="translate(476,448) scale(0.28,0.28)"><g transform="" style="fill: rgb(0, 0, 0);">
<rect width="100" height="100"/>
</g></g><g transform="translate(700,448) scale(0.28,0.28)"><g transform="" style="fill: rgb(0, 0, 0);">
<rect width="100" height="100"/>
</g></g><g transform="translate(728,448) scale(0.28,0.28)"><g transform="" style="fill: rgb(0, 0, 0);">
<rect width="100" height="100"/>
</g></g><g transform="translate(756,448) scale(0.28,0.28)"><g transform="" style="fill: rgb(0, 0, 0);">
<rect width="100" height="100"/>
</g></g><g transform="translate(784,448) scale(0.28,0.28)"><g transform="" style="fill: rgb(0, 0, 0);">
<rect width="100" height="100"/>
</g></g><g transform="translate(812,448) scale(0.28,0.28)"><g transform="" style="fill: rgb(0, 0, 0);">
<rect width="100" height="100"/>
</g></g><g transform="translate(840,448) scale(0.28,0.28)"><g transform="" style="fill: rgb(0, 0, 0);">
<rect width="100" height="100"/>
</g></g><g transform="translate(896,448) scale(0.28,0.28)"><g transform="" style="fill: rgb(0, 0, 0);">
<rect width="100" height="100"/>
</g></g><g transform="translate(952,448) scale(0.28,0.28)"><g transform="" style="fill: rgb(0, 0, 0);">
<rect width="100" height="100"/>
</g></g><g transform="translate(980,448) scale(0.28,0.28)"><g transform="" style="fill: rgb(0, 0, 0);">
<rect width="100" height="100"/>
</g></g><g transform="translate(0,476) scale(0.28,0.28)"><g transform="" style="fill: rgb(0, 0, 0);">
<rect width="100" height="100"/>
</g></g><g transform="translate(28,476) scale(0.28,0.28)"><g transform="" style="fill: rgb(0, 0, 0);">
<rect width="100" height="100"/>
</g></g><g transform="translate(56,476) scale(0.28,0.28)"><g transform="" style="fill: rgb(0, 0, 0);">
<rect width="100" height="100"/>
</g></g><g transform="translate(224,476) scale(0.28,0.28)"><g transform="" style="fill: rgb(0, 0, 0);">
<rect width="100" height="100"/>
</g></g><g transform="translate(280,476) scale(0.28,0.28)"><g transform="" style="fill: rgb(0, 0, 0);">
<rect width="100" height="100"/>
</g></g><g transform="translate(308,476) scale(0.28,0.28)"><g transform="" style="fill: rgb(0, 0, 0);">
<rect width="100" height="100"/>
</g></g><g transform="translate(364,476) scale(0.28,0.28)"><g transform="" style="fill: rgb(0, 0, 0);">
<rect width="100" height="100"/>
</g></g><g transform="translate(448,476) scale(0.28,0.28)"><g transform="" style="fill: rgb(0, 0, 0);">
<rect width="100" height="100"/>
</g></g><g transform="translate(560,476) scale(0.28,0.28)"><g transform="" style="fill: rgb(0, 0, 0);">
<rect width="100" height="100"/>
</g></g><g transform="translate(588,476) scale(0.28,0.28)"><g transform="" style="fill: rgb(0, 0, 0);">
<rect width="100" height="100"/>
</g></g><g transform="translate(616,476) scale(0.28,0.28)"><g transform="" style="fill: rgb(0, 0, 0);">
<rect width="100" height="100"/>
</g></g><g transform="translate(672,476) scale(0.28,0.28)"><g transform="" style="fill: rgb(0, 0, 0);">
<rect width="100" height="100"/>
</g></g><g transform="translate(700,476) scale(0.28,0.28)"><g transform="" style="fill: rgb(0, 0, 0);">
<rect width="100" height="100"/>
</g></g><g transform="translate(784,476) scale(0.28,0.28)"><g transform="" style="fill: rgb(0, 0, 0);">
<rect width="100" height="100"/>
</g></g><g transform="translate(868,476) scale(0.28,0.28)"><g transform="" style="fill: rgb(0, 0, 0);">
<rect width="100" height="100"/>
</g></g><g transform="translate(924,476) scale(0.28,0.28)"><g transform="" style="fill: rgb(0, 0, 0);">
<rect width="100" height="100"/>
</g></g><g transform="translate(952,476) scale(0.28,0.28)"><g transform="" style="fill: rgb(0, 0, 0);">
<rect width="100" height="100"/>
</g></g><g transform="translate(28,504) scale(0.28,0.28)"><g transform="" style="fill: rgb(0, 0, 0);">
<rect width="100" height="100"/>
</g></g><g transform="translate(112,504) scale(0.28,0.28)"><g transform="" style="fill: rgb(0, 0, 0);">
<rect width="100" height="100"/>
</g></g><g transform="translate(140,504) scale(0.28,0.28)"><g transform="" style="fill: rgb(0, 0, 0);">
<rect width="100" height="100"/>
</g></g><g transform="translate(168,504) scale(0.28,0.28)"><g transform="" style="fill: rgb(0, 0, 0);">
<rect width="100" height="100"/>
</g></g><g transform="translate(252,504) scale(0.28,0.28)"><g transform="" style="fill: rgb(0, 0, 0);">
<rect width="100" height="100"/>
</g></g><g transform="translate(280,504) scale(0.28,0.28)"><g transform="" style="fill: rgb(0, 0, 0);">
<rect width="100" height="100"/>
</g></g><g transform="translate(364,504) scale(0.28,0.28)"><g transform="" style="fill: rgb(0, 0, 0);">
<rect width="100" height="100"/>
</g></g><g transform="translate(448,504) scale(0.28,0.28)"><g transform="" style="fill: rgb(0, 0, 0);">
<rect width="100" height="100"/>
</g></g><g transform="translate(476,504) scale(0.28,0.28)"><g transform="" style="fill: rgb(0, 0, 0);">
<rect width="100" height="100"/>
</g></g><g transform="translate(532,504) scale(0.28,0.28)"><g transform="" style="fill: rgb(0, 0, 0);">
<rect width="100" height="100"/>
</g></g><g transform="translate(560,504) scale(0.28,0.28)"><g transform="" style="fill: rgb(0, 0, 0);">
<rect width="100" height="100"/>
</g></g><g transform="translate(588,504) scale(0.28,0.28)"><g transform="" style="fill: rgb(0, 0, 0);">
<rect width="100" height="100"/>
</g></g><g transform="translate(616,504) scale(0.28,0.28)"><g transform="" style="fill: rgb(0, 0, 0);">
<rect width="100" height="100"/>
</g></g><g transform="translate(728,504) scale(0.28,0.28)"><g transform="" style="fill: rgb(0, 0, 0);">
<rect width="100" height="100"/>
</g></g><g transform="translate(756,504) scale(0.28,0.28)"><g transform="" style="fill: rgb(0, 0, 0);">
<rect width="100" height="100"/>
</g></g><g transform="translate(784,504) scale(0.28,0.28)"><g transform="" style="fill: rgb(0, 0, 0);">
<rect width="100" height="100"/>
</g></g><g transform="translate(812,504) scale(0.28,0.28)"><g transform="" style="fill: rgb(0, 0, 0);">
<rect width="100" height="100"/>
</g></g><g transform="translate(896,504) scale(0.28,0.28)"><g transform="" style="fill: rgb(0, 0, 0);">
<rect width="100" height="100"/>
</g></g><g transform="translate(980,504) scale(0.28,0.28)"><g transform="" style="fill: rgb(0, 0, 0);">
<rect width="100" height="100"/>
</g></g><g transform="translate(1008,504) scale(0.28,0.28)"><g transform="" style="fill: rgb(0, 0, 0);">
<rect width="100" height="100"/>
</g></g><g transform="translate(0,532) scale(0.28,0.28)"><g transform="" style="fill: rgb(0, 0, 0);">
<rect width="100" height="100"/>
</g></g><g transform="translate(84,532) scale(0.28,0.28)"><g transform="" style="fill: rgb(0, 0, 0);">
<rect width="100" height="100"/>
</g></g><g transform="translate(140,532) scale(0.28,0.28)"><g transform="" style="fill: rgb(0, 0, 0);">
<rect width="100" height="100"/>
</g></g><g transform="translate(252,532) scale(0.28,0.28)"><g transform="" style="fill: rgb(0, 0, 0);">
<rect width="100" height="100"/>
</g></g><g transform="translate(336,532) scale(0.28,0.28)"><g transform="" style="fill: rgb(0, 0, 0);">
<rect width="100" height="100"/>
</g></g><g transform="translate(392,532) scale(0.28,0.28)"><g transform="" style="fill: rgb(0, 0, 0);">
<rect width="100" height="100"/>
</g></g><g transform="translate(420,532) scale(0.28,0.28)"><g transform="" style="fill: rgb(0, 0, 0);">
<rect width="100" height="100"/>
</g></g><g transform="translate(532,532) scale(0.28,0.28)"><g transform="" style="fill: rgb(0, 0, 0);">
<rect width="100" height="100"/>
</g></g><g transform="translate(616,532) scale(0.28,0.28)"><g transform="" style="fill: rgb(0, 0, 0);">
<rect width="100" height="100"/>
</g></g><g transform="translate(756,532) scale(0.28,0.28)"><g transform="" style="fill: rgb(0, 0, 0);">
<rect width="100" height="100"/>
</g></g><g transform="translate(784,532) scale(0.28,0.28)"><g transform="" style="fill: rgb(0, 0, 0);">
<rect width="100" height="100"/>
</g></g><g transform="translate(868,532) scale(0.28,0.28)"><g transform="" style="fill: rgb(0, 0, 0);">
<rect width="100" height="100"/>
</g></g><g transform="translate(896,532) scale(0.28,0.28)"><g transform="" style="fill: rgb(0, 0, 0);">
<rect width="100" height="100"/>
</g></g><g transform="translate(1008,532) scale(0.28,0.28)"><g transform="" style="fill: rgb(0, 0, 0);">
<rect width="100" height="100"/>
</g></g><g transform="translate(0,560) scale(0.28,0.28)"><g transform="" style="fill: rgb(0, 0, 0);">
<rect width="100" height="100"/>
</g></g><g transform="translate(84,560) scale(0.28,0.28)"><g transform="" style="fill: rgb(0, 0, 0);">
<rect width="100" height="100"/>
</g></g><g transform="translate(140,560) scale(0.28,0.28)"><g transform="" style="fill: rgb(0, 0, 0);">
<rect width="100" height="100"/>
</g></g><g transform="translate(168,560) scale(0.28,0.28)"><g transform="" style="fill: rgb(0, 0, 0);">
<rect width="100" height="100"/>
</g></g><g transform="translate(224,560) scale(0.28,0.28)"><g transform="" style="fill: rgb(0, 0, 0);">
<rect width="100" height="100"/>
</g></g><g transform="translate(280,560) scale(0.28,0.28)"><g transform="" style="fill: rgb(0, 0, 0);">
<rect width="100" height="100"/>
</g></g><g transform="translate(308,560) scale(0.28,0.28)"><g transform="" style="fill: rgb(0, 0, 0);">
<rect width="100" height="100"/>
</g></g><g transform="translate(448,560) scale(0.28,0.28)"><g transform="" style="fill: rgb(0, 0, 0);">
<rect width="100" height="100"/>
</g></g><g transform="translate(504,560) scale(0.28,0.28)"><g transform="" style="fill: rgb(0, 0, 0);">
<rect width="100" height="100"/>
</g></g><g transform="translate(532,560) scale(0.28,0.28)"><g transform="" style="fill: rgb(0, 0, 0);">
<rect width="100" height="100"/>
</g></g><g transform="translate(616,560) scale(0.28,0.28)"><g transform="" style="fill: rgb(0, 0, 0);">
<rect width="100" height="100"/>
</g></g><g transform="translate(644,560) scale(0.28,0.28)"><g transform="" style="fill: rgb(0, 0, 0);">
<rect width="100" height="100"/>
</g></g><g transform="translate(672,560) scale(0.28,0.28)"><g transform="" style="fill: rgb(0, 0, 0);">
<rect width="100" height="100"/>
</g></g><g transform="translate(700,560) scale(0.28,0.28)"><g transform="" style="fill: rgb(0, 0, 0);">
<rect width="100" height="100"/>
</g></g><g transform="translate(812,560) scale(0.28,0.28)"><g transform="" style="fill: rgb(0, 0, 0);">
<rect width="100" height="100"/>
</g></g><g transform="translate(840,560) scale(0.28,0.28)"><g transform="" style="fill: rgb(0, 0, 0);">
<rect width="100" height="100"/>
</g></g><g transform="translate(868,560) scale(0.28,0.28)"><g transform="" style="fill: rgb(0, 0, 0);">
<rect width="100" height="100"/>
</g></g><g transform="translate(896,560) scale(0.28,0.28)"><g transform="" style="fill: rgb(0, 0, 0);">
<rect width="100" height="100"/>
</g></g><g transform="translate(924,560) scale(0.28,0.28)"><g transform="" style="fill: rgb(0, 0, 0);">
<rect width="100" height="100"/>
</g></g><g transform="translate(952,560) scale(0.28,0.28)"><g transform="" style="fill: rgb(0, 0, 0);">
<rect width="100" height="100"/>
</g></g><g transform="translate(980,560) scale(0.28,0.28)"><g transform="" style="fill: rgb(0, 0, 0);">
<rect width="100" height="100"/>
</g></g><g transform="translate(0,588) scale(0.28,0.28)"><g transform="" style="fill: rgb(0, 0, 0);">
<rect width="100" height="100"/>
</g></g><g transform="translate(28,588) scale(0.28,0.28)"><g transform="" style="fill: rgb(0, 0, 0);">
<rect width="100" height="100"/>
</g></g><g transform="translate(308,588) scale(0.28,0.28)"><g transform="" style="fill: rgb(0, 0, 0);">
<rect width="100" height="100"/>
</g></g><g transform="translate(336,588) scale(0.28,0.28)"><g transform="" style="fill: rgb(0, 0, 0);">
<rect width="100" height="100"/>
</g></g><g transform="translate(392,588) scale(0.28,0.28)"><g transform="" style="fill: rgb(0, 0, 0);">
<rect width="100" height="100"/>
</g></g><g transform="translate(476,588) scale(0.28,0.28)"><g transform="" style="fill: rgb(0, 0, 0);">
<rect width="100" height="100"/>
</g></g><g transform="translate(504,588) scale(0.28,0.28)"><g transform="" style="fill: rgb(0, 0, 0);">
<rect width="100" height="100"/>
</g></g><g transform="translate(560,588) scale(0.28,0.28)"><g transform="" style="fill: rgb(0, 0, 0);">
<rect width="100" height="100"/>
</g></g><g transform="translate(588,588) scale(0.28,0.28)"><g transform="" style="fill: rgb(0, 0, 0);">
<rect width="100" height="100"/>
</g></g><g transform="translate(672,588) scale(0.28,0.28)"><g transform="" style="fill: rgb(0, 0, 0);">
<rect width="100" height="100"/>
</g></g><g transform="translate(868,588) scale(0.28,0.28)"><g transform="" style="fill: rgb(0, 0, 0);">
<rect width="100" height="100"/>
</g></g><g transform="translate(924,588) scale(0.28,0.28)"><g transform="" style="fill: rgb(0, 0, 0);">
<rect width="100" height="100"/>
</g></g><g transform="translate(980,588) scale(0.28,0.28)"><g transform="" style="fill: rgb(0, 0, 0);">
<rect width="100" height="100"/>
</g></g><g transform="translate(56,616) scale(0.28,0.28)"><g transform="" style="fill: rgb(0, 0, 0);">
<rect width="100" height="100"/>
</g></g><g transform="translate(112,616) scale(0.28,0.28)"><g transform="" style="fill: rgb(0, 0, 0);">
<rect width="100" height="100"/>
</g></g><g transform="translate(140,616) scale(0.28,0.28)"><g transform="" style="fill: rgb(0, 0, 0);">
<rect width="100" height="100"/>
</g></g><g transform="translate(168,616) scale(0.28,0.28)"><g transform="" style="fill: rgb(0, 0, 0);">
<rect width="100" height="100"/>
</g></g><g transform="translate(224,616) scale(0.28,0.28)"><g transform="" style="fill: rgb(0, 0, 0);">
<rect width="100" height="100"/>
</g></g><g transform="translate(364,616) scale(0.28,0.28)"><g transform="" style="fill: rgb(0, 0, 0);">
<rect width="100" height="100"/>
</g></g><g transform="translate(448,616) scale(0.28,0.28)"><g transform="" style="fill: rgb(0, 0, 0);">
<rect width="100" height="100"/>
</g></g><g transform="translate(532,616) scale(0.28,0.28)"><g transform="" style="fill: rgb(0, 0, 0);">
<rect width="100" height="100"/>
</g></g><g transform="translate(588,616) scale(0.28,0.28)"><g transform="" style="fill: rgb(0, 0, 0);">
<rect width="100" height="100"/>
</g></g><g transform="translate(644,616) scale(0.28,0.28)"><g transform="" style="fill: rgb(0, 0, 0);">
<rect width="100" height="100"/>
</g></g><g transform="translate(672,616) scale(0.28,0.28)"><g transform="" style="fill: rgb(0, 0, 0);">
<rect width="100" height="100"/>
</g></g><g transform="translate(756,616) scale(0.28,0.28)"><g transform="" style="fill: rgb(0, 0, 0);">
<rect width="100" height="100"/>
</g></g><g transform="translate(840,616) scale(0.28,0.28)"><g transform="" style="fill: rgb(0, 0, 0);">
<rect width="100" height="100"/>
</g></g><g transform="translate(924,616) scale(0.28,0.28)"><g transform="" style="fill: rgb(0, 0, 0);">
<rect width="100" height="100"/>
</g></g><g transform="translate(952,616) scale(0.28,0.28)"><g transform="" style="fill: rgb(0, 0, 0);">
<rect width="100" height="100"/>
</g></g><g transform="translate(1008,616) scale(0.28,0.28)"><g transform="" style="fill: rgb(0, 0, 0);">
<rect width="100" height="100"/>
</g></g><g transform="translate(28,644) scale(0.28,0.28)"><g transform="" style="fill: rgb(0, 0, 0);">
<rect width="100" height="100"/>
</g></g><g transform="translate(56,644) scale(0.28,0.28)"><g transform="" style="fill: rgb(0, 0, 0);">
<rect width="100" height="100"/>
</g></g><g transform="translate(84,644) scale(0.28,0.28)"><g transform="" style="fill: rgb(0, 0, 0);">
<rect width="100" height="100"/>
</g></g><g transform="translate(112,644) scale(0.28,0.28)"><g transform="" style="fill: rgb(0, 0, 0);">
<rect width="100" height="100"/>
</g></g><g transform="translate(140,644) scale(0.28,0.28)"><g transform="" style="fill: rgb(0, 0, 0);">
<rect width="100" height="100"/>
</g></g><g transform="translate(196,644) scale(0.28,0.28)"><g transform="" style="fill: rgb(0, 0, 0);">
<rect width="100" height="100"/>
</g></g><g transform="translate(280,644) scale(0.28,0.28)"><g transform="" style="fill: rgb(0, 0, 0);">
<rect width="100" height="100"/>
</g></g><g transform="translate(308,644) scale(0.28,0.28)"><g transform="" style="fill: rgb(0, 0, 0);">
<rect width="100" height="100"/>
</g></g><g transform="translate(392,644) scale(0.28,0.28)"><g transform="" style="fill: rgb(0, 0, 0);">
<rect width="100" height="100"/>
</g></g><g transform="translate(476,644) scale(0.28,0.28)"><g transform="" style="fill: rgb(0, 0, 0);">
<rect width="100" height="100"/>
</g></g><g transform="translate(504,644) scale(0.28,0.28)"><g transform="" style="fill: rgb(0, 0, 0);">
<rect width="100" height="100"/>
</g></g><g transform="translate(532,644) scale(0.28,0.28)"><g transform="" style="fill: rgb(0, 0, 0);">
<rect width="100" height="100"/>
</g></g><g transform="translate(560,644) scale(0.28,0.28)"><g transform="" style="fill: rgb(0, 0, 0);">
<rect width="100" height="100"/>
</g></g><g transform="translate(588,644) scale(0.28,0.28)"><g transform="" style="fill: rgb(0, 0, 0);">
<rect width="100" height="100"/>
</g></g><g transform="translate(616,644) scale(0.28,0.28)"><g transform="" style="fill: rgb(0, 0, 0);">
<rect width="100" height="100"/>
</g></g><g transform="translate(644,644) scale(0.28,0.28)"><g transform="" style="fill: rgb(0, 0, 0);">
<rect width="100" height="100"/>
</g></g><g transform="translate(728,644) scale(0.28,0.28)"><g transform="" style="fill: rgb(0, 0, 0);">
<rect width="100" height="100"/>
</g></g><g transform="translate(812,644) scale(0.28,0.28)"><g transform="" style="fill: rgb(0, 0, 0);">
<rect width="100" height="100"/>
</g></g><g transform="translate(840,644) scale(0.28,0.28)"><g transform="" style="fill: rgb(0, 0, 0);">
<rect width="100" height="100"/>
</g></g><g transform="translate(868,644) scale(0.28,0.28)"><g transform="" style="fill: rgb(0, 0, 0);">
<rect width="100" height="100"/>
</g></g><g transform="translate(1008,644) scale(0.28,0.28)"><g transform="" style="fill: rgb(0, 0, 0);">
<rect width="100" height="100"/>
</g></g><g transform="translate(0,672) scale(0.28,0.28)"><g transform="" style="fill: rgb(0, 0, 0);">
<rect width="100" height="100"/>
</g></g><g transform="translate(28,672) scale(0.28,0.28)"><g transform="" style="fill: rgb(0, 0, 0);">
<rect width="100" height="100"/>
</g></g><g transform="translate(56,672) scale(0.28,0.28)"><g transform="" style="fill: rgb(0, 0, 0);">
<rect width="100" height="100"/>
</g></g><g transform="translate(84,672) scale(0.28,0.28)"><g transform="" style="fill: rgb(0, 0, 0);">
<rect width="100" height="100"/>
</g></g><g transform="translate(140,672) scale(0.28,0.28)"><g transform="" style="fill: rgb(0, 0, 0);">
<rect width="100" height="100"/>
</g></g><g transform="translate(168,672) scale(0.28,0.28)"><g transform="" style="fill: rgb(0, 0, 0);">
<rect width="100" height="100"/>
</g></g><g transform="translate(196,672) scale(0.28,0.28)"><g transform="" style="fill: rgb(0, 0, 0);">
<rect width="100" height="100"/>
</g></g><g transform="translate(252,672) scale(0.28,0.28)"><g transform="" style="fill: rgb(0, 0, 0);">
<rect width="100" height="100"/>
</g></g><g transform="translate(280,672) scale(0.28,0.28)"><g transform="" style="fill: rgb(0, 0, 0);">
<rect width="100" height="100"/>
</g></g><g transform="translate(308,672) scale(0.28,0.28)"><g transform="" style="fill: rgb(0, 0, 0);">
<rect width="100" height="100"/>
</g></g><g transform="translate(336,672) scale(0.28,0.28)"><g transform="" style="fill: rgb(0, 0, 0);">
<rect width="100" height="100"/>
</g></g><g transform="translate(364,672) scale(0.28,0.28)"><g transform="" style="fill: rgb(0, 0, 0);">
<rect width="100" height="100"/>
</g></g><g transform="translate(448,672) scale(0.28,0.28)"><g transform="" style="fill: rgb(0, 0, 0);">
<rect width="100" height="100"/>
</g></g><g transform="translate(476,672) scale(0.28,0.28)"><g transform="" style="fill: rgb(0, 0, 0);">
<rect width="100" height="100"/>
</g></g><g transform="translate(504,672) scale(0.28,0.28)"><g transform="" style="fill: rgb(0, 0, 0);">
<rect width="100" height="100"/>
</g></g><g transform="translate(532,672) scale(0.28,0.28)"><g transform="" style="fill: rgb(0, 0, 0);">
<rect width="100" height="100"/>
</g></g><g transform="translate(588,672) scale(0.28,0.28)"><g transform="" style="fill: rgb(0, 0, 0);">
<rect width="100" height="100"/>
</g></g><g transform="translate(644,672) scale(0.28,0.28)"><g transform="" style="fill: rgb(0, 0, 0);">
<rect width="100" height="100"/>
</g></g><g transform="translate(672,672) scale(0.28,0.28)"><g transform="" style="fill: rgb(0, 0, 0);">
<rect width="100" height="100"/>
</g></g><g transform="translate(700,672) scale(0.28,0.28)"><g transform="" style="fill: rgb(0, 0, 0);">
<rect width="100" height="100"/>
</g></g><g transform="translate(728,672) scale(0.28,0.28)"><g transform="" style="fill: rgb(0, 0, 0);">
<rect width="100" height="100"/>
</g></g><g transform="translate(812,672) scale(0.28,0.28)"><g transform="" style="fill: rgb(0, 0, 0);">
<rect width="100" height="100"/>
</g></g><g transform="translate(840,672) scale(0.28,0.28)"><g transform="" style="fill: rgb(0, 0, 0);">
<rect width="100" height="100"/>
</g></g><g transform="translate(868,672) scale(0.28,0.28)"><g transform="" style="fill: rgb(0, 0, 0);">
<rect width="100" height="100"/>
</g></g><g transform="translate(896,672) scale(0.28,0.28)"><g transform="" style="fill: rgb(0, 0, 0);">
<rect width="100" height="100"/>
</g></g><g transform="translate(924,672) scale(0.28,0.28)"><g transform="" style="fill: rgb(0, 0, 0);">
<rect width="100" height="100"/>
</g></g><g transform="translate(952,672) scale(0.28,0.28)"><g transform="" style="fill: rgb(0, 0, 0);">
<rect width="100" height="100"/>
</g></g><g transform="translate(1008,672) scale(0.28,0.28)"><g transform="" style="fill: rgb(0, 0, 0);">
<rect width="100" height="100"/>
</g></g><g transform="translate(0,700) scale(0.28,0.28)"><g transform="" style="fill: rgb(0, 0, 0);">
<rect width="100" height="100"/>
</g></g><g transform="translate(56,700) scale(0.28,0.28)"><g transform="" style="fill: rgb(0, 0, 0);">
<rect width="100" height="100"/>
</g></g><g transform="translate(140,700) scale(0.28,0.28)"><g transform="" style="fill: rgb(0, 0, 0);">
<rect width="100" height="100"/>
</g></g><g transform="translate(308,700) scale(0.28,0.28)"><g transform="" style="fill: rgb(0, 0, 0);">
<rect width="100" height="100"/>
</g></g><g transform="translate(364,700) scale(0.28,0.28)"><g transform="" style="fill: rgb(0, 0, 0);">
<rect width="100" height="100"/>
</g></g><g transform="translate(392,700) scale(0.28,0.28)"><g transform="" style="fill: rgb(0, 0, 0);">
<rect width="100" height="100"/>
</g></g><g transform="translate(420,700) scale(0.28,0.28)"><g transform="" style="fill: rgb(0, 0, 0);">
<rect width="100" height="100"/>
</g></g><g transform="translate(448,700) scale(0.28,0.28)"><g transform="" style="fill: rgb(0, 0, 0);">
<rect width="100" height="100"/>
</g></g><g transform="translate(504,700) scale(0.28,0.28)"><g transform="" style="fill: rgb(0, 0, 0);">
<rect width="100" height="100"/>
</g></g><g transform="translate(672,700) scale(0.28,0.28)"><g transform="" style="fill: rgb(0, 0, 0);">
<rect width="100" height="100"/>
</g></g><g transform="translate(700,700) scale(0.28,0.28)"><g transform="" style="fill: rgb(0, 0, 0);">
<rect width="100" height="100"/>
</g></g><g transform="translate(784,700) scale(0.28,0.28)"><g transform="" style="fill: rgb(0, 0, 0);">
<rect width="100" height="100"/>
</g></g><g transform="translate(868,700) scale(0.28,0.28)"><g transform="" style="fill: rgb(0, 0, 0);">
<rect width="100" height="100"/>
</g></g><g transform="translate(924,700) scale(0.28,0.28)"><g transform="" style="fill: rgb(0, 0, 0);">
<rect width="100" height="100"/>
</g></g><g transform="translate(0,728) scale(0.28,0.28)"><g transform="" style="fill: rgb(0, 0, 0);">
<rect width="100" height="100"/>
</g></g><g transform="translate(112,728) scale(0.28,0.28)"><g transform="" style="fill: rgb(0, 0, 0);">
<rect width="100" height="100"/>
</g></g><g transform="translate(140,728) scale(0.28,0.28)"><g transform="" style="fill: rgb(0, 0, 0);">
<rect width="100" height="100"/>
</g></g><g transform="translate(168,728) scale(0.28,0.28)"><g transform="" style="fill: rgb(0, 0, 0);">
<rect width="100" height="100"/>
</g></g><g transform="translate(196,728) scale(0.28,0.28)"><g transform="" style="fill: rgb(0, 0, 0);">
<rect width="100" height="100"/>
</g></g><g transform="translate(308,728) scale(0.28,0.28)"><g transform="" style="fill: rgb(0, 0, 0);">
<rect width="100" height="100"/>
</g></g><g transform="translate(336,728) scale(0.28,0.28)"><g transform="" style="fill: rgb(0, 0, 0);">
<rect width="100" height="100"/>
</g></g><g transform="translate(448,728) scale(0.28,0.28)"><g transform="" style="fill: rgb(0, 0, 0);">
<rect width="100" height="100"/>
</g></g><g transform="translate(504,728) scale(0.28,0.28)"><g transform="" style="fill: rgb(0, 0, 0);">
<rect width="100" height="100"/>
</g></g><g transform="translate(560,728) scale(0.28,0.28)"><g transform="" style="fill: rgb(0, 0, 0);">
<rect width="100" height="100"/>
</g></g><g transform="translate(588,728) scale(0.28,0.28)"><g transform="" style="fill: rgb(0, 0, 0);">
<rect width="100" height="100"/>
</g></g><g transform="translate(616,728) scale(0.28,0.28)"><g transform="" style="fill: rgb(0, 0, 0);">
<rect width="100" height="100"/>
</g></g><g transform="translate(728,728) scale(0.28,0.28)"><g transform="" style="fill: rgb(0, 0, 0);">
<rect width="100" height="100"/>
</g></g><g transform="translate(756,728) scale(0.28,0.28)"><g transform="" style="fill: rgb(0, 0, 0);">
<rect width="100" height="100"/>
</g></g><g transform="translate(840,728) scale(0.28,0.28)"><g transform="" style="fill: rgb(0, 0, 0);">
<rect width="100" height="100"/>
</g></g><g transform="translate(868,728) scale(0.28,0.28)"><g transform="" style="fill: rgb(0, 0, 0);">
<rect width="100" height="100"/>
</g></g><g transform="translate(896,728) scale(0.28,0.28)"><g transform="" style="fill: rgb(0, 0, 0);">
<rect width="100" height="100"/>
</g></g><g transform="translate(924,728) scale(0.28,0.28)"><g transform="" style="fill: rgb(0, 0, 0);">
<rect width="100" height="100"/>
</g></g><g transform="translate(952,728) scale(0.28,0.28)"><g transform="" style="fill: rgb(0, 0, 0);">
<rect width="100" height="100"/>
</g></g><g transform="translate(980,728) scale(0.28,0.28)"><g transform="" style="fill: rgb(0, 0, 0);">
<rect width="100" height="100"/>
</g></g><g transform="translate(1008,728) scale(0.28,0.28)"><g transform="" style="fill: rgb(0, 0, 0);">
<rect width="100" height="100"/>
</g></g><g transform="translate(0,756) scale(0.28,0.28)"><g transform="" style="fill: rgb(0, 0, 0);">
<rect width="100" height="100"/>
</g></g><g transform="translate(56,756) scale(0.28,0.28)"><g transform="" style="fill: rgb(0, 0, 0);">
<rect width="100" height="100"/>
</g></g><g transform="translate(112,756) scale(0.28,0.28)"><g transform="" style="fill: rgb(0, 0, 0);">
<rect width="100" height="100"/>
</g></g><g transform="translate(196,756) scale(0.28,0.28)"><g transform="" style="fill: rgb(0, 0, 0);">
<rect width="100" height="100"/>
</g></g><g transform="translate(224,756) scale(0.28,0.28)"><g transform="" style="fill: rgb(0, 0, 0);">
<rect width="100" height="100"/>
</g></g><g transform="translate(336,756) scale(0.28,0.28)"><g transform="" style="fill: rgb(0, 0, 0);">
<rect width="100" height="100"/>
</g></g><g transform="translate(392,756) scale(0.28,0.28)"><g transform="" style="fill: rgb(0, 0, 0);">
<rect width="100" height="100"/>
</g></g><g transform="translate(476,756) scale(0.28,0.28)"><g transform="" style="fill: rgb(0, 0, 0);">
<rect width="100" height="100"/>
</g></g><g transform="translate(504,756) scale(0.28,0.28)"><g transform="" style="fill: rgb(0, 0, 0);">
<rect width="100" height="100"/>
</g></g><g transform="translate(532,756) scale(0.28,0.28)"><g transform="" style="fill: rgb(0, 0, 0);">
<rect width="100" height="100"/>
</g></g><g transform="translate(560,756) scale(0.28,0.28)"><g transform="" style="fill: rgb(0, 0, 0);">
<rect width="100" height="100"/>
</g></g><g transform="translate(672,756) scale(0.28,0.28)"><g transform="" style="fill: rgb(0, 0, 0);">
<rect width="100" height="100"/>
</g></g><g transform="translate(728,756) scale(0.28,0.28)"><g transform="" style="fill: rgb(0, 0, 0);">
<rect width="100" height="100"/>
</g></g><g transform="translate(784,756) scale(0.28,0.28)"><g transform="" style="fill: rgb(0, 0, 0);">
<rect width="100" height="100"/>
</g></g><g transform="translate(812,756) scale(0.28,0.28)"><g transform="" style="fill: rgb(0, 0, 0);">
<rect width="100" height="100"/>
</g></g><g transform="translate(868,756) scale(0.28,0.28)"><g transform="" style="fill: rgb(0, 0, 0);">
<rect width="100" height="100"/>
</g></g><g transform="translate(896,756) scale(0.28,0.28)"><g transform="" style="fill: rgb(0, 0, 0);">
<rect width="100" height="100"/>
</g></g><g transform="translate(924,756) scale(0.28,0.28)"><g transform="" style="fill: rgb(0, 0, 0);">
<rect width="100" height="100"/>
</g></g><g transform="translate(0,784) scale(0.28,0.28)"><g transform="" style="fill: rgb(0, 0, 0);">
<rect width="100" height="100"/>
</g></g><g transform="translate(56,784) scale(0.28,0.28)"><g transform="" style="fill: rgb(0, 0, 0);">
<rect width="100" height="100"/>
</g></g><g transform="translate(84,784) scale(0.28,0.28)"><g transform="" style="fill: rgb(0, 0, 0);">
<rect width="100" height="100"/>
</g></g><g transform="translate(112,784) scale(0.28,0.28)"><g transform="" style="fill: rgb(0, 0, 0);">
<rect width="100" height="100"/>
</g></g><g transform="translate(140,784) scale(0.28,0.28)"><g transform="" style="fill: rgb(0, 0, 0);">
<rect width="100" height="100"/>
</g></g><g transform="translate(168,784) scale(0.28,0.28)"><g transform="" style="fill: rgb(0, 0, 0);">
<rect width="100" height="100"/>
</g></g><g transform="translate(196,784) scale(0.28,0.28)"><g transform="" style="fill: rgb(0, 0, 0);">
<rect width="100" height="100"/>
</g></g><g transform="translate(252,784) scale(0.28,0.28)"><g transform="" style="fill: rgb(0, 0, 0);">
<rect width="100" height="100"/>
</g></g><g transform="translate(280,784) scale(0.28,0.28)"><g transform="" style="fill: rgb(0, 0, 0);">
<rect width="100" height="100"/>
</g></g><g transform="translate(336,784) scale(0.28,0.28)"><g transform="" style="fill: rgb(0, 0, 0);">
<rect width="100" height="100"/>
</g></g><g transform="translate(364,784) scale(0.28,0.28)"><g transform="" style="fill: rgb(0, 0, 0);">
<rect width="100" height="100"/>
</g></g><g transform="translate(392,784) scale(0.28,0.28)"><g transform="" style="fill: rgb(0, 0, 0);">
<rect width="100" height="100"/>
</g></g><g transform="translate(420,784) scale(0.28,0.28)"><g transform="" style="fill: rgb(0, 0, 0);">
<rect width="100" height="100"/>
</g></g><g transform="translate(504,784) scale(0.28,0.28)"><g transform="" style="fill: rgb(0, 0, 0);">
<rect width="100" height="100"/>
</g></g><g transform="translate(560,784) scale(0.28,0.28)"><g transform="" style="fill: rgb(0, 0, 0);">
<rect width="100" height="100"/>
</g></g><g transform="translate(616,784) scale(0.28,0.28)"><g transform="" style="fill: rgb(0, 0, 0);">
<rect width="100" height="100"/>
</g></g><g transform="translate(644,784) scale(0.28,0.28)"><g transform="" style="fill: rgb(0, 0, 0);">
<rect width="100" height="100"/>
</g></g><g transform="translate(700,784) scale(0.28,0.28)"><g transform="" style="fill: rgb(0, 0, 0);">
<rect width="100" height="100"/>
</g></g><g transform="translate(728,784) scale(0.28,0.28)"><g transform="" style="fill: rgb(0, 0, 0);">
<rect width="100" height="100"/>
</g></g><g transform="translate(784,784) scale(0.28,0.28)"><g transform="" style="fill: rgb(0, 0, 0);">
<rect width="100" height="100"/>
</g></g><g transform="translate(812,784) scale(0.28,0.28)"><g transform="" style="fill: rgb(0, 0, 0);">
<rect width="100" height="100"/>
</g></g><g transform="translate(840,784) scale(0.28,0.28)"><g transform="" style="fill: rgb(0, 0, 0);">
<rect width="100" height="100"/>
</g></g><g transform="translate(868,784) scale(0.28,0.28)"><g transform="" style="fill: rgb(0, 0, 0);">
<rect width="100" height="100"/>
</g></g><g transform="translate(896,784) scale(0.28,0.28)"><g transform="" style="fill: rgb(0, 0, 0);">
<rect width="100" height="100"/>
</g></g><g transform="translate(924,784) scale(0.28,0.28)"><g transform="" style="fill: rgb(0, 0, 0);">
<rect width="100" height="100"/>
</g></g><g transform="translate(952,784) scale(0.28,0.28)"><g transform="" style="fill: rgb(0, 0, 0);">
<rect width="100" height="100"/>
</g></g><g transform="translate(980,784) scale(0.28,0.28)"><g transform="" style="fill: rgb(0, 0, 0);">
<rect width="100" height="100"/>
</g></g><g transform="translate(224,812) scale(0.28,0.28)"><g transform="" style="fill: rgb(0, 0, 0);">
<rect width="100" height="100"/>
</g></g><g transform="translate(252,812) scale(0.28,0.28)"><g transform="" style="fill: rgb(0, 0, 0);">
<rect width="100" height="100"/>
</g></g><g transform="translate(280,812) scale(0.28,0.28)"><g transform="" style="fill: rgb(0, 0, 0);">
<rect width="100" height="100"/>
</g></g><g transform="translate(308,812) scale(0.28,0.28)"><g transform="" style="fill: rgb(0, 0, 0);">
<rect width="100" height="100"/>
</g></g><g transform="translate(336,812) scale(0.28,0.28)"><g transform="" style="fill: rgb(0, 0, 0);">
<rect width="100" height="100"/>
</g></g><g transform="translate(420,812) scale(0.28,0.28)"><g transform="" style="fill: rgb(0, 0, 0);">
<rect width="100" height="100"/>
</g></g><g transform="translate(504,812) scale(0.28,0.28)"><g transform="" style="fill: rgb(0, 0, 0);">
<rect width="100" height="100"/>
</g></g><g transform="translate(532,812) scale(0.28,0.28)"><g transform="" style="fill: rgb(0, 0, 0);">
<rect width="100" height="100"/>
</g></g><g transform="translate(560,812) scale(0.28,0.28)"><g transform="" style="fill: rgb(0, 0, 0);">
<rect width="100" height="100"/>
</g></g><g transform="translate(616,812) scale(0.28,0.28)"><g transform="" style="fill: rgb(0, 0, 0);">
<rect width="100" height="100"/>
</g></g><g transform="translate(644,812) scale(0.28,0.28)"><g transform="" style="fill: rgb(0, 0, 0);">
<rect width="100" height="100"/>
</g></g><g transform="translate(672,812) scale(0.28,0.28)"><g transform="" style="fill: rgb(0, 0, 0);">
<rect width="100" height="100"/>
</g></g><g transform="translate(784,812) scale(0.28,0.28)"><g transform="" style="fill: rgb(0, 0, 0);">
<rect width="100" height="100"/>
</g></g><g transform="translate(896,812) scale(0.28,0.28)"><g transform="" style="fill: rgb(0, 0, 0);">
<rect width="100" height="100"/>
</g></g><g transform="translate(364,840) scale(0.28,0.28)"><g transform="" style="fill: rgb(0, 0, 0);">
<rect width="100" height="100"/>
</g></g><g transform="translate(448,840) scale(0.28,0.28)"><g transform="" style="fill: rgb(0, 0, 0);">
<rect width="100" height="100"/>
</g></g><g transform="translate(532,840) scale(0.28,0.28)"><g transform="" style="fill: rgb(0, 0, 0);">
<rect width="100" height="100"/>
</g></g><g transform="translate(588,840) scale(0.28,0.28)"><g transform="" style="fill: rgb(0, 0, 0);">
<rect width="100" height="100"/>
</g></g><g transform="translate(616,840) scale(0.28,0.28)"><g transform="" style="fill: rgb(0, 0, 0);">
<rect width="100" height="100"/>
</g></g><g transform="translate(672,840) scale(0.28,0.28)"><g transform="" style="fill: rgb(0, 0, 0);">
<rect width="100" height="100"/>
</g></g><g transform="translate(784,840) scale(0.28,0.28)"><g transform="" style="fill: rgb(0, 0, 0);">
<rect width="100" height="100"/>
</g></g><g transform="translate(840,840) scale(0.28,0.28)"><g transform="" style="fill: rgb(0, 0, 0);">
<rect width="100" height="100"/>
</g></g><g transform="translate(896,840) scale(0.28,0.28)"><g transform="" style="fill: rgb(0, 0, 0);">
<rect width="100" height="100"/>
</g></g><g transform="translate(924,840) scale(0.28,0.28)"><g transform="" style="fill: rgb(0, 0, 0);">
<rect width="100" height="100"/>
</g></g><g transform="translate(980,840) scale(0.28,0.28)"><g transform="" style="fill: rgb(0, 0, 0);">
<rect width="100" height="100"/>
</g></g><g transform="translate(1008,840) scale(0.28,0.28)"><g transform="" style="fill: rgb(0, 0, 0);">
<rect width="100" height="100"/>
</g></g><g transform="translate(280,868) scale(0.28,0.28)"><g transform="" style="fill: rgb(0, 0, 0);">
<rect width="100" height="100"/>
</g></g><g transform="translate(308,868) scale(0.28,0.28)"><g transform="" style="fill: rgb(0, 0, 0);">
<rect width="100" height="100"/>
</g></g><g transform="translate(420,868) scale(0.28,0.28)"><g transform="" style="fill: rgb(0, 0, 0);">
<rect width="100" height="100"/>
</g></g><g transform="translate(504,868) scale(0.28,0.28)"><g transform="" style="fill: rgb(0, 0, 0);">
<rect width="100" height="100"/>
</g></g><g transform="translate(532,868) scale(0.28,0.28)"><g transform="" style="fill: rgb(0, 0, 0);">
<rect width="100" height="100"/>
</g></g><g transform="translate(588,868) scale(0.28,0.28)"><g transform="" style="fill: rgb(0, 0, 0);">
<rect width="100" height="100"/>
</g></g><g transform="translate(644,868) scale(0.28,0.28)"><g transform="" style="fill: rgb(0, 0, 0);">
<rect width="100" height="100"/>
</g></g><g transform="translate(672,868) scale(0.28,0.28)"><g transform="" style="fill: rgb(0, 0, 0);">
<rect width="100" height="100"/>
</g></g><g transform="translate(728,868) scale(0.28,0.28)"><g transform="" style="fill: rgb(0, 0, 0);">
<rect width="100" height="100"/>
</g></g><g transform="translate(784,868) scale(0.28,0.28)"><g transform="" style="fill: rgb(0, 0, 0);">
<rect width="100" height="100"/>
</g></g><g transform="translate(896,868) scale(0.28,0.28)"><g transform="" style="fill: rgb(0, 0, 0);">
<rect width="100" height="100"/>
</g></g><g transform="translate(980,868) scale(0.28,0.28)"><g transform="" style="fill: rgb(0, 0, 0);">
<rect width="100" height="100"/>
</g></g><g transform="translate(1008,868) scale(0.28,0.28)"><g transform="" style="fill: rgb(0, 0, 0);">
<rect width="100" height="100"/>
</g></g><g transform="translate(224,896) scale(0.28,0.28)"><g transform="" style="fill: rgb(0, 0, 0);">
<rect width="100" height="100"/>
</g></g><g transform="translate(252,896) scale(0.28,0.28)"><g transform="" style="fill: rgb(0, 0, 0);">
<rect width="100" height="100"/>
</g></g><g transform="translate(308,896) scale(0.28,0.28)"><g transform="" style="fill: rgb(0, 0, 0);">
<rect width="100" height="100"/>
</g></g><g transform="translate(336,896) scale(0.28,0.28)"><g transform="" style="fill: rgb(0, 0, 0);">
<rect width="100" height="100"/>
</g></g><g transform="translate(364,896) scale(0.28,0.28)"><g transform="" style="fill: rgb(0, 0, 0);">
<rect width="100" height="100"/>
</g></g><g transform="translate(392,896) scale(0.28,0.28)"><g transform="" style="fill: rgb(0, 0, 0);">
<rect width="100" height="100"/>
</g></g><g transform="translate(476,896) scale(0.28,0.28)"><g transform="" style="fill: rgb(0, 0, 0);">
<rect width="100" height="100"/>
</g></g><g transform="translate(504,896) scale(0.28,0.28)"><g transform="" style="fill: rgb(0, 0, 0);">
<rect width="100" height="100"/>
</g></g><g transform="translate(532,896) scale(0.28,0.28)"><g transform="" style="fill: rgb(0, 0, 0);">
<rect width="100" height="100"/>
</g></g><g transform="translate(588,896) scale(0.28,0.28)"><g transform="" style="fill: rgb(0, 0, 0);">
<rect width="100" height="100"/>
</g></g><g transform="translate(616,896) scale(0.28,0.28)"><g transform="" style="fill: rgb(0, 0, 0);">
<rect width="100" height="100"/>
</g></g><g transform="translate(700,896) scale(0.28,0.28)"><g transform="" style="fill: rgb(0, 0, 0);">
<rect width="100" height="100"/>
</g></g><g transform="translate(756,896) scale(0.28,0.28)"><g transform="" style="fill: rgb(0, 0, 0);">
<rect width="100" height="100"/>
</g></g><g transform="translate(784,896) scale(0.28,0.28)"><g transform="" style="fill: rgb(0, 0, 0);">
<rect width="100" height="100"/>
</g></g><g transform="translate(812,896) scale(0.28,0.28)"><g transform="" style="fill: rgb(0, 0, 0);">
<rect width="100" height="100"/>
</g></g><g transform="translate(840,896) scale(0.28,0.28)"><g transform="" style="fill: rgb(0, 0, 0);">
<rect width="100" height="100"/>
</g></g><g transform="translate(868,896) scale(0.28,0.28)"><g transform="" style="fill: rgb(0, 0, 0);">
<rect width="100" height="100"/>
</g></g><g transform="translate(896,896) scale(0.28,0.28)"><g transform="" style="fill: rgb(0, 0, 0);">
<rect width="100" height="100"/>
</g></g><g transform="translate(952,896) scale(0.28,0.28)"><g transform="" style="fill: rgb(0, 0, 0);">
<rect width="100" height="100"/>
</g></g><g transform="translate(1008,896) scale(0.28,0.28)"><g transform="" style="fill: rgb(0, 0, 0);">
<rect width="100" height="100"/>
</g></g><g transform="translate(224,924) scale(0.28,0.28)"><g transform="" style="fill: rgb(0, 0, 0);">
<rect width="100" height="100"/>
</g></g><g transform="translate(420,924) scale(0.28,0.28)"><g transform="" style="fill: rgb(0, 0, 0);">
<rect width="100" height="100"/>
</g></g><g transform="translate(476,924) scale(0.28,0.28)"><g transform="" style="fill: rgb(0, 0, 0);">
<rect width="100" height="100"/>
</g></g><g transform="translate(616,924) scale(0.28,0.28)"><g transform="" style="fill: rgb(0, 0, 0);">
<rect width="100" height="100"/>
</g></g><g transform="translate(644,924) scale(0.28,0.28)"><g transform="" style="fill: rgb(0, 0, 0);">
<rect width="100" height="100"/>
</g></g><g transform="translate(700,924) scale(0.28,0.28)"><g transform="" style="fill: rgb(0, 0, 0);">
<rect width="100" height="100"/>
</g></g><g transform="translate(840,924) scale(0.28,0.28)"><g transform="" style="fill: rgb(0, 0, 0);">
<rect width="100" height="100"/>
</g></g><g transform="translate(896,924) scale(0.28,0.28)"><g transform="" style="fill: rgb(0, 0, 0);">
<rect width="100" height="100"/>
</g></g><g transform="translate(952,924) scale(0.28,0.28)"><g transform="" style="fill: rgb(0, 0, 0);">
<rect width="100" height="100"/>
</g></g><g transform="translate(224,952) scale(0.28,0.28)"><g transform="" style="fill: rgb(0, 0, 0);">
<rect width="100" height="100"/>
</g></g><g transform="translate(308,952) scale(0.28,0.28)"><g transform="" style="fill: rgb(0, 0, 0);">
<rect width="100" height="100"/>
</g></g><g transform="translate(336,952) scale(0.28,0.28)"><g transform="" style="fill: rgb(0, 0, 0);">
<rect width="100" height="100"/>
</g></g><g transform="translate(392,952) scale(0.28,0.28)"><g transform="" style="fill: rgb(0, 0, 0);">
<rect width="100" height="100"/>
</g></g><g transform="translate(420,952) scale(0.28,0.28)"><g transform="" style="fill: rgb(0, 0, 0);">
<rect width="100" height="100"/>
</g></g><g transform="translate(448,952) scale(0.28,0.28)"><g transform="" style="fill: rgb(0, 0, 0);">
<rect width="100" height="100"/>
</g></g><g transform="translate(476,952) scale(0.28,0.28)"><g transform="" style="fill: rgb(0, 0, 0);">
<rect width="100" height="100"/>
</g></g><g transform="translate(504,952) scale(0.28,0.28)"><g transform="" style="fill: rgb(0, 0, 0);">
<rect width="100" height="100"/>
</g></g><g transform="translate(588,952) scale(0.28,0.28)"><g transform="" style="fill: rgb(0, 0, 0);">
<rect width="100" height="100"/>
</g></g><g transform="translate(616,952) scale(0.28,0.28)"><g transform="" style="fill: rgb(0, 0, 0);">
<rect width="100" height="100"/>
</g></g><g transform="translate(700,952) scale(0.28,0.28)"><g transform="" style="fill: rgb(0, 0, 0);">
<rect width="100" height="100"/>
</g></g><g transform="translate(728,952) scale(0.28,0.28)"><g transform="" style="fill: rgb(0, 0, 0);">
<rect width="100" height="100"/>
</g></g><g transform="translate(812,952) scale(0.28,0.28)"><g transform="" style="fill: rgb(0, 0, 0);">
<rect width="100" height="100"/>
</g></g><g transform="translate(924,952) scale(0.28,0.28)"><g transform="" style="fill: rgb(0, 0, 0);">
<rect width="100" height="100"/>
</g></g><g transform="translate(952,952) scale(0.28,0.28)"><g transform="" style="fill: rgb(0, 0, 0);">
<rect width="100" height="100"/>
</g></g><g transform="translate(1008,952) scale(0.28,0.28)"><g transform="" style="fill: rgb(0, 0, 0);">
<rect width="100" height="100"/>
</g></g><g transform="translate(252,980) scale(0.28,0.28)"><g transform="" style="fill: rgb(0, 0, 0);">
<rect width="100" height="100"/>
</g></g><g transform="translate(280,980) scale(0.28,0.28)"><g transform="" style="fill: rgb(0, 0, 0);">
<rect width="100" height="100"/>
</g></g><g transform="translate(336,980) scale(0.28,0.28)"><g transform="" style="fill: rgb(0, 0, 0);">
<rect width="100" height="100"/>
</g></g><g transform="translate(364,980) scale(0.28,0.28)"><g transform="" style="fill: rgb(0, 0, 0);">
<rect width="100" height="100"/>
</g></g><g transform="translate(616,980) scale(0.28,0.28)"><g transform="" style="fill: rgb(0, 0, 0);">
<rect width="100" height="100"/>
</g></g><g transform="translate(728,980) scale(0.28,0.28)"><g transform="" style="fill: rgb(0, 0, 0);">
<rect width="100" height="100"/>
</g></g><g transform="translate(756,980) scale(0.28,0.28)"><g transform="" style="fill: rgb(0, 0, 0);">
<rect width="100" height="100"/>
</g></g><g transform="translate(784,980) scale(0.28,0.28)"><g transform="" style="fill: rgb(0, 0, 0);">
<rect width="100" height="100"/>
</g></g><g transform="translate(868,980) scale(0.28,0.28)"><g transform="" style="fill: rgb(0, 0, 0);">
<rect width="100" height="100"/>
</g></g><g transform="translate(896,980) scale(0.28,0.28)"><g transform="" style="fill: rgb(0, 0, 0);">
<rect width="100" height="100"/>
</g></g><g transform="translate(924,980) scale(0.28,0.28)"><g transform="" style="fill: rgb(0, 0, 0);">
<rect width="100" height="100"/>
</g></g><g transform="translate(1008,980) scale(0.28,0.28)"><g transform="" style="fill: rgb(0, 0, 0);">
<rect width="100" height="100"/>
</g></g><g transform="translate(420,1008) scale(0.28,0.28)"><g transform="" style="fill: rgb(0, 0, 0);">
<rect width="100" height="100"/>
</g></g><g transform="translate(448,1008) scale(0.28,0.28)"><g transform="" style="fill: rgb(0, 0, 0);">
<rect width="100" height="100"/>
</g></g><g transform="translate(504,1008) scale(0.28,0.28)"><g transform="" style="fill: rgb(0, 0, 0);">
<rect width="100" height="100"/>
</g></g><g transform="translate(532,1008) scale(0.28,0.28)"><g transform="" style="fill: rgb(0, 0, 0);">
<rect width="100" height="100"/>
</g></g><g transform="translate(560,1008) scale(0.28,0.28)"><g transform="" style="fill: rgb(0, 0, 0);">
<rect width="100" height="100"/>
</g></g><g transform="translate(644,1008) scale(0.28,0.28)"><g transform="" style="fill: rgb(0, 0, 0);">
<rect width="100" height="100"/>
</g></g><g transform="translate(700,1008) scale(0.28,0.28)"><g transform="" style="fill: rgb(0, 0, 0);">
<rect width="100" height="100"/>
</g></g><g transform="translate(840,1008) scale(0.28,0.28)"><g transform="" style="fill: rgb(0, 0, 0);">
<rect width="100" height="100"/>
</g></g><g transform="translate(868,1008) scale(0.28,0.28)"><g transform="" style="fill: rgb(0, 0, 0);">
<rect width="100" height="100"/>
</g></g><g transform="translate(924,1008) scale(0.28,0.28)"><g transform="" style="fill: rgb(0, 0, 0);">
<rect width="100" height="100"/>
</g></g><g transform="translate(952,1008) scale(0.28,0.28)"><g transform="" style="fill: rgb(0, 0, 0);">
<rect width="100" height="100"/>
</g></g><g transform="translate(980,1008) scale(0.28,0.28)"><g transform="" style="fill: rgb(0, 0, 0);">
<rect width="100" height="100"/>
</g></g><g transform="translate(1008,1008) scale(0.28,0.28)"><g transform="" style="fill: rgb(0, 0, 0);">
<rect width="100" height="100"/>
</g></g><g transform="translate(0,0) scale(1.96, 1.96)"><g transform="" style="fill: rgb(0, 0, 0);">
<g>
	<path style="fill:none;" d="M81.649,18.351c-1.715-0.122-3.399-0.435-5.025-0.924c-2.139,0.644-4.379,0.982-6.656,0.982
		c-2.276,0-4.518-0.339-6.655-0.982c-2.139,0.644-4.379,0.982-6.656,0.982S52.139,18.07,50,17.426
		c-2.138,0.644-4.379,0.982-6.656,0.982s-4.518-0.339-6.657-0.982c-2.138,0.644-4.379,0.982-6.656,0.982
		c-2.277,0-4.517-0.338-6.656-0.982c-1.625,0.489-3.31,0.802-5.025,0.924c-0.122,1.715-0.435,3.4-0.924,5.026
		c0.644,2.138,0.982,4.379,0.982,6.656c0,2.277-0.339,4.518-0.982,6.656c0.644,2.138,0.982,4.378,0.982,6.656
		c0,2.277-0.339,4.517-0.982,6.655c0.644,2.138,0.982,4.378,0.982,6.656s-0.339,4.519-0.982,6.657
		c0.644,2.138,0.982,4.379,0.982,6.656c0,2.276-0.339,4.518-0.982,6.655c0.489,1.625,0.802,3.311,0.924,5.024
		c1.715,0.122,3.4,0.436,5.025,0.925c2.138-0.644,4.379-0.982,6.656-0.982s4.518,0.339,6.657,0.982
		c2.138-0.644,4.379-0.982,6.656-0.982c2.277,0,4.518,0.339,6.656,0.982c2.138-0.644,4.379-0.982,6.656-0.982
		c2.277,0,4.518,0.339,6.656,0.982c2.138-0.644,4.379-0.982,6.655-0.982c2.277,0,4.519,0.339,6.656,0.982
		c1.626-0.489,3.311-0.803,5.025-0.925c0.122-1.715,0.436-3.399,0.925-5.024c-0.644-2.138-0.982-4.379-0.982-6.655
		c0-2.277,0.339-4.519,0.982-6.657c-0.644-2.139-0.982-4.379-0.982-6.656s0.339-4.518,0.982-6.656
		c-0.644-2.138-0.982-4.379-0.982-6.655c0-2.277,0.339-4.518,0.982-6.656c-0.644-2.138-0.982-4.379-0.982-6.656
		s0.339-4.518,0.982-6.656C82.085,21.751,81.771,20.066,81.649,18.351z"/>
	<path d="M100,23.376c-2.062-1.494-3.408-3.916-3.408-6.656s1.347-5.162,3.408-6.656c-2.062-1.494-3.408-3.915-3.408-6.656
		c-2.741,0-5.162-1.347-6.656-3.409c-1.493,2.062-3.915,3.409-6.655,3.409c-2.741,0-5.163-1.347-6.657-3.409
		c-1.493,2.062-3.914,3.409-6.655,3.409c-2.74,0-5.162-1.347-6.656-3.409c-1.493,2.062-3.914,3.409-6.655,3.409
		C53.916,3.409,51.494,2.062,50,0c-1.494,2.062-3.915,3.409-6.656,3.409S38.182,2.062,36.688,0
		c-1.495,2.062-3.915,3.409-6.657,3.409c-2.74,0-5.162-1.347-6.656-3.409c-1.494,2.062-3.914,3.409-6.656,3.409
		c-2.74,0-5.162-1.347-6.656-3.409C8.571,2.062,6.149,3.409,3.409,3.409c0,2.741-1.347,5.162-3.409,6.656
		c2.062,1.494,3.409,3.915,3.409,6.656S2.062,21.882,0,23.376c2.062,1.494,3.409,3.915,3.409,6.656c0,2.74-1.347,5.161-3.409,6.655
		c2.062,1.494,3.409,3.915,3.409,6.656c0,2.74-1.347,5.161-3.409,6.656c2.062,1.493,3.409,3.915,3.409,6.655
		c0,2.741-1.347,5.163-3.409,6.656c2.062,1.494,3.409,3.915,3.409,6.657c0,2.739-1.347,5.161-3.409,6.655
		c2.062,1.493,3.409,3.914,3.409,6.656c0,2.739-1.347,5.161-3.409,6.655c2.062,1.493,3.409,3.915,3.409,6.655
		c2.741,0,5.162,1.348,6.655,3.409c1.494-2.062,3.916-3.409,6.656-3.409c2.74,0,5.162,1.348,6.656,3.409
		c1.494-2.062,3.916-3.409,6.656-3.409c2.742,0,5.162,1.348,6.657,3.409c1.495-2.062,3.915-3.409,6.656-3.409S48.506,97.938,50,100
		c1.494-2.062,3.916-3.409,6.656-3.409c2.741,0,5.162,1.348,6.655,3.409c1.494-2.062,3.916-3.409,6.656-3.409
		c2.741,0,5.162,1.348,6.655,3.409c1.494-2.062,3.916-3.409,6.657-3.409c2.74,0,5.162,1.348,6.655,3.409
		c1.494-2.062,3.915-3.409,6.656-3.409c0-2.741,1.347-5.162,3.408-6.655c-2.062-1.494-3.408-3.916-3.408-6.655
		c0-2.741,1.347-5.163,3.408-6.656c-2.062-1.494-3.408-3.916-3.408-6.655c0-2.742,1.347-5.163,3.408-6.657
		c-2.062-1.494-3.408-3.915-3.408-6.656c0-2.74,1.347-5.162,3.408-6.655c-2.062-1.495-3.408-3.916-3.408-6.656
		c0-2.741,1.347-5.162,3.408-6.656c-2.062-1.494-3.408-3.915-3.408-6.655C96.592,27.292,97.938,24.871,100,23.376z M82.574,36.688
		c-0.644,2.138-0.982,4.379-0.982,6.656c0,2.276,0.339,4.517,0.982,6.655c-0.644,2.138-0.982,4.378-0.982,6.656
		s0.339,4.518,0.982,6.656c-0.644,2.139-0.982,4.38-0.982,6.657c0,2.276,0.339,4.518,0.982,6.655
		c-0.489,1.625-0.803,3.31-0.925,5.024c-1.715,0.122-3.399,0.436-5.025,0.925c-2.138-0.644-4.379-0.982-6.656-0.982
		c-2.276,0-4.518,0.339-6.655,0.982c-2.139-0.644-4.379-0.982-6.656-0.982c-2.276,0-4.518,0.339-6.656,0.982
		c-2.139-0.644-4.379-0.982-6.656-0.982c-2.277,0-4.518,0.339-6.656,0.982c-2.139-0.644-4.38-0.982-6.657-0.982
		s-4.518,0.339-6.656,0.982c-1.625-0.489-3.31-0.803-5.025-0.925c-0.122-1.714-0.435-3.399-0.924-5.024
		c0.644-2.138,0.982-4.379,0.982-6.655c0-2.277-0.339-4.519-0.982-6.656c0.644-2.139,0.982-4.38,0.982-6.657S18.07,52.138,17.427,50
		c0.644-2.138,0.982-4.378,0.982-6.655c0-2.277-0.339-4.518-0.982-6.656c0.644-2.138,0.982-4.379,0.982-6.656
		c0-2.277-0.339-4.518-0.982-6.656c0.489-1.626,0.802-3.311,0.924-5.026c1.715-0.122,3.399-0.435,5.025-0.924
		c2.139,0.644,4.378,0.982,6.656,0.982c2.277,0,4.518-0.339,6.656-0.982c2.139,0.644,4.379,0.982,6.657,0.982
		S47.862,18.07,50,17.426c2.138,0.644,4.378,0.982,6.656,0.982s4.518-0.339,6.656-0.982c2.138,0.644,4.379,0.982,6.655,0.982
		c2.277,0,4.518-0.338,6.656-0.982c1.626,0.49,3.311,0.803,5.025,0.924c0.122,1.715,0.436,3.4,0.925,5.026
		c-0.644,2.138-0.982,4.379-0.982,6.656S81.931,34.55,82.574,36.688z"/>
</g>
</g></g><g transform="translate(840,0) scale(1.96, 1.96)"><g transform="" style="fill: rgb(0, 0, 0);">
<g>
	<path style="fill:none;" d="M81.649,18.351c-1.715-0.122-3.399-0.435-5.025-0.924c-2.139,0.644-4.379,0.982-6.656,0.982
		c-2.276,0-4.518-0.339-6.655-0.982c-2.139,0.644-4.379,0.982-6.656,0.982S52.139,18.07,50,17.426
		c-2.138,0.644-4.379,0.982-6.656,0.982s-4.518-0.339-6.657-0.982c-2.138,0.644-4.379,0.982-6.656,0.982
		c-2.277,0-4.517-0.338-6.656-0.982c-1.625,0.489-3.31,0.802-5.025,0.924c-0.122,1.715-0.435,3.4-0.924,5.026
		c0.644,2.138,0.982,4.379,0.982,6.656c0,2.277-0.339,4.518-0.982,6.656c0.644,2.138,0.982,4.378,0.982,6.656
		c0,2.277-0.339,4.517-0.982,6.655c0.644,2.138,0.982,4.378,0.982,6.656s-0.339,4.519-0.982,6.657
		c0.644,2.138,0.982,4.379,0.982,6.656c0,2.276-0.339,4.518-0.982,6.655c0.489,1.625,0.802,3.311,0.924,5.024
		c1.715,0.122,3.4,0.436,5.025,0.925c2.138-0.644,4.379-0.982,6.656-0.982s4.518,0.339,6.657,0.982
		c2.138-0.644,4.379-0.982,6.656-0.982c2.277,0,4.518,0.339,6.656,0.982c2.138-0.644,4.379-0.982,6.656-0.982
		c2.277,0,4.518,0.339,6.656,0.982c2.138-0.644,4.379-0.982,6.655-0.982c2.277,0,4.519,0.339,6.656,0.982
		c1.626-0.489,3.311-0.803,5.025-0.925c0.122-1.715,0.436-3.399,0.925-5.024c-0.644-2.138-0.982-4.379-0.982-6.655
		c0-2.277,0.339-4.519,0.982-6.657c-0.644-2.139-0.982-4.379-0.982-6.656s0.339-4.518,0.982-6.656
		c-0.644-2.138-0.982-4.379-0.982-6.655c0-2.277,0.339-4.518,0.982-6.656c-0.644-2.138-0.982-4.379-0.982-6.656
		s0.339-4.518,0.982-6.656C82.085,21.751,81.771,20.066,81.649,18.351z"/>
	<path d="M100,23.376c-2.062-1.494-3.408-3.916-3.408-6.656s1.347-5.162,3.408-6.656c-2.062-1.494-3.408-3.915-3.408-6.656
		c-2.741,0-5.162-1.347-6.656-3.409c-1.493,2.062-3.915,3.409-6.655,3.409c-2.741,0-5.163-1.347-6.657-3.409
		c-1.493,2.062-3.914,3.409-6.655,3.409c-2.74,0-5.162-1.347-6.656-3.409c-1.493,2.062-3.914,3.409-6.655,3.409
		C53.916,3.409,51.494,2.062,50,0c-1.494,2.062-3.915,3.409-6.656,3.409S38.182,2.062,36.688,0
		c-1.495,2.062-3.915,3.409-6.657,3.409c-2.74,0-5.162-1.347-6.656-3.409c-1.494,2.062-3.914,3.409-6.656,3.409
		c-2.74,0-5.162-1.347-6.656-3.409C8.571,2.062,6.149,3.409,3.409,3.409c0,2.741-1.347,5.162-3.409,6.656
		c2.062,1.494,3.409,3.915,3.409,6.656S2.062,21.882,0,23.376c2.062,1.494,3.409,3.915,3.409,6.656c0,2.74-1.347,5.161-3.409,6.655
		c2.062,1.494,3.409,3.915,3.409,6.656c0,2.74-1.347,5.161-3.409,6.656c2.062,1.493,3.409,3.915,3.409,6.655
		c0,2.741-1.347,5.163-3.409,6.656c2.062,1.494,3.409,3.915,3.409,6.657c0,2.739-1.347,5.161-3.409,6.655
		c2.062,1.493,3.409,3.914,3.409,6.656c0,2.739-1.347,5.161-3.409,6.655c2.062,1.493,3.409,3.915,3.409,6.655
		c2.741,0,5.162,1.348,6.655,3.409c1.494-2.062,3.916-3.409,6.656-3.409c2.74,0,5.162,1.348,6.656,3.409
		c1.494-2.062,3.916-3.409,6.656-3.409c2.742,0,5.162,1.348,6.657,3.409c1.495-2.062,3.915-3.409,6.656-3.409S48.506,97.938,50,100
		c1.494-2.062,3.916-3.409,6.656-3.409c2.741,0,5.162,1.348,6.655,3.409c1.494-2.062,3.916-3.409,6.656-3.409
		c2.741,0,5.162,1.348,6.655,3.409c1.494-2.062,3.916-3.409,6.657-3.409c2.74,0,5.162,1.348,6.655,3.409
		c1.494-2.062,3.915-3.409,6.656-3.409c0-2.741,1.347-5.162,3.408-6.655c-2.062-1.494-3.408-3.916-3.408-6.655
		c0-2.741,1.347-5.163,3.408-6.656c-2.062-1.494-3.408-3.916-3.408-6.655c0-2.742,1.347-5.163,3.408-6.657
		c-2.062-1.494-3.408-3.915-3.408-6.656c0-2.74,1.347-5.162,3.408-6.655c-2.062-1.495-3.408-3.916-3.408-6.656
		c0-2.741,1.347-5.162,3.408-6.656c-2.062-1.494-3.408-3.915-3.408-6.655C96.592,27.292,97.938,24.871,100,23.376z M82.574,36.688
		c-0.644,2.138-0.982,4.379-0.982,6.656c0,2.276,0.339,4.517,0.982,6.655c-0.644,2.138-0.982,4.378-0.982,6.656
		s0.339,4.518,0.982,6.656c-0.644,2.139-0.982,4.38-0.982,6.657c0,2.276,0.339,4.518,0.982,6.655
		c-0.489,1.625-0.803,3.31-0.925,5.024c-1.715,0.122-3.399,0.436-5.025,0.925c-2.138-0.644-4.379-0.982-6.656-0.982
		c-2.276,0-4.518,0.339-6.655,0.982c-2.139-0.644-4.379-0.982-6.656-0.982c-2.276,0-4.518,0.339-6.656,0.982
		c-2.139-0.644-4.379-0.982-6.656-0.982c-2.277,0-4.518,0.339-6.656,0.982c-2.139-0.644-4.38-0.982-6.657-0.982
		s-4.518,0.339-6.656,0.982c-1.625-0.489-3.31-0.803-5.025-0.925c-0.122-1.714-0.435-3.399-0.924-5.024
		c0.644-2.138,0.982-4.379,0.982-6.655c0-2.277-0.339-4.519-0.982-6.656c0.644-2.139,0.982-4.38,0.982-6.657S18.07,52.138,17.427,50
		c0.644-2.138,0.982-4.378,0.982-6.655c0-2.277-0.339-4.518-0.982-6.656c0.644-2.138,0.982-4.379,0.982-6.656
		c0-2.277-0.339-4.518-0.982-6.656c0.489-1.626,0.802-3.311,0.924-5.026c1.715-0.122,3.399-0.435,5.025-0.924
		c2.139,0.644,4.378,0.982,6.656,0.982c2.277,0,4.518-0.339,6.656-0.982c2.139,0.644,4.379,0.982,6.657,0.982
		S47.862,18.07,50,17.426c2.138,0.644,4.378,0.982,6.656,0.982s4.518-0.339,6.656-0.982c2.138,0.644,4.379,0.982,6.655,0.982
		c2.277,0,4.518-0.338,6.656-0.982c1.626,0.49,3.311,0.803,5.025,0.924c0.122,1.715,0.436,3.4,0.925,5.026
		c-0.644,2.138-0.982,4.379-0.982,6.656S81.931,34.55,82.574,36.688z"/>
</g>
</g></g><g transform="translate(0,840) scale(1.96, 1.96)"><g transform="" style="fill: rgb(0, 0, 0);">
<g>
	<path style="fill:none;" d="M81.649,18.351c-1.715-0.122-3.399-0.435-5.025-0.924c-2.139,0.644-4.379,0.982-6.656,0.982
		c-2.276,0-4.518-0.339-6.655-0.982c-2.139,0.644-4.379,0.982-6.656,0.982S52.139,18.07,50,17.426
		c-2.138,0.644-4.379,0.982-6.656,0.982s-4.518-0.339-6.657-0.982c-2.138,0.644-4.379,0.982-6.656,0.982
		c-2.277,0-4.517-0.338-6.656-0.982c-1.625,0.489-3.31,0.802-5.025,0.924c-0.122,1.715-0.435,3.4-0.924,5.026
		c0.644,2.138,0.982,4.379,0.982,6.656c0,2.277-0.339,4.518-0.982,6.656c0.644,2.138,0.982,4.378,0.982,6.656
		c0,2.277-0.339,4.517-0.982,6.655c0.644,2.138,0.982,4.378,0.982,6.656s-0.339,4.519-0.982,6.657
		c0.644,2.138,0.982,4.379,0.982,6.656c0,2.276-0.339,4.518-0.982,6.655c0.489,1.625,0.802,3.311,0.924,5.024
		c1.715,0.122,3.4,0.436,5.025,0.925c2.138-0.644,4.379-0.982,6.656-0.982s4.518,0.339,6.657,0.982
		c2.138-0.644,4.379-0.982,6.656-0.982c2.277,0,4.518,0.339,6.656,0.982c2.138-0.644,4.379-0.982,6.656-0.982
		c2.277,0,4.518,0.339,6.656,0.982c2.138-0.644,4.379-0.982,6.655-0.982c2.277,0,4.519,0.339,6.656,0.982
		c1.626-0.489,3.311-0.803,5.025-0.925c0.122-1.715,0.436-3.399,0.925-5.024c-0.644-2.138-0.982-4.379-0.982-6.655
		c0-2.277,0.339-4.519,0.982-6.657c-0.644-2.139-0.982-4.379-0.982-6.656s0.339-4.518,0.982-6.656
		c-0.644-2.138-0.982-4.379-0.982-6.655c0-2.277,0.339-4.518,0.982-6.656c-0.644-2.138-0.982-4.379-0.982-6.656
		s0.339-4.518,0.982-6.656C82.085,21.751,81.771,20.066,81.649,18.351z"/>
	<path d="M100,23.376c-2.062-1.494-3.408-3.916-3.408-6.656s1.347-5.162,3.408-6.656c-2.062-1.494-3.408-3.915-3.408-6.656
		c-2.741,0-5.162-1.347-6.656-3.409c-1.493,2.062-3.915,3.409-6.655,3.409c-2.741,0-5.163-1.347-6.657-3.409
		c-1.493,2.062-3.914,3.409-6.655,3.409c-2.74,0-5.162-1.347-6.656-3.409c-1.493,2.062-3.914,3.409-6.655,3.409
		C53.916,3.409,51.494,2.062,50,0c-1.494,2.062-3.915,3.409-6.656,3.409S38.182,2.062,36.688,0
		c-1.495,2.062-3.915,3.409-6.657,3.409c-2.74,0-5.162-1.347-6.656-3.409c-1.494,2.062-3.914,3.409-6.656,3.409
		c-2.74,0-5.162-1.347-6.656-3.409C8.571,2.062,6.149,3.409,3.409,3.409c0,2.741-1.347,5.162-3.409,6.656
		c2.062,1.494,3.409,3.915,3.409,6.656S2.062,21.882,0,23.376c2.062,1.494,3.409,3.915,3.409,6.656c0,2.74-1.347,5.161-3.409,6.655
		c2.062,1.494,3.409,3.915,3.409,6.656c0,2.74-1.347,5.161-3.409,6.656c2.062,1.493,3.409,3.915,3.409,6.655
		c0,2.741-1.347,5.163-3.409,6.656c2.062,1.494,3.409,3.915,3.409,6.657c0,2.739-1.347,5.161-3.409,6.655
		c2.062,1.493,3.409,3.914,3.409,6.656c0,2.739-1.347,5.161-3.409,6.655c2.062,1.493,3.409,3.915,3.409,6.655
		c2.741,0,5.162,1.348,6.655,3.409c1.494-2.062,3.916-3.409,6.656-3.409c2.74,0,5.162,1.348,6.656,3.409
		c1.494-2.062,3.916-3.409,6.656-3.409c2.742,0,5.162,1.348,6.657,3.409c1.495-2.062,3.915-3.409,6.656-3.409S48.506,97.938,50,100
		c1.494-2.062,3.916-3.409,6.656-3.409c2.741,0,5.162,1.348,6.655,3.409c1.494-2.062,3.916-3.409,6.656-3.409
		c2.741,0,5.162,1.348,6.655,3.409c1.494-2.062,3.916-3.409,6.657-3.409c2.74,0,5.162,1.348,6.655,3.409
		c1.494-2.062,3.915-3.409,6.656-3.409c0-2.741,1.347-5.162,3.408-6.655c-2.062-1.494-3.408-3.916-3.408-6.655
		c0-2.741,1.347-5.163,3.408-6.656c-2.062-1.494-3.408-3.916-3.408-6.655c0-2.742,1.347-5.163,3.408-6.657
		c-2.062-1.494-3.408-3.915-3.408-6.656c0-2.74,1.347-5.162,3.408-6.655c-2.062-1.495-3.408-3.916-3.408-6.656
		c0-2.741,1.347-5.162,3.408-6.656c-2.062-1.494-3.408-3.915-3.408-6.655C96.592,27.292,97.938,24.871,100,23.376z M82.574,36.688
		c-0.644,2.138-0.982,4.379-0.982,6.656c0,2.276,0.339,4.517,0.982,6.655c-0.644,2.138-0.982,4.378-0.982,6.656
		s0.339,4.518,0.982,6.656c-0.644,2.139-0.982,4.38-0.982,6.657c0,2.276,0.339,4.518,0.982,6.655
		c-0.489,1.625-0.803,3.31-0.925,5.024c-1.715,0.122-3.399,0.436-5.025,0.925c-2.138-0.644-4.379-0.982-6.656-0.982
		c-2.276,0-4.518,0.339-6.655,0.982c-2.139-0.644-4.379-0.982-6.656-0.982c-2.276,0-4.518,0.339-6.656,0.982
		c-2.139-0.644-4.379-0.982-6.656-0.982c-2.277,0-4.518,0.339-6.656,0.982c-2.139-0.644-4.38-0.982-6.657-0.982
		s-4.518,0.339-6.656,0.982c-1.625-0.489-3.31-0.803-5.025-0.925c-0.122-1.714-0.435-3.399-0.924-5.024
		c0.644-2.138,0.982-4.379,0.982-6.655c0-2.277-0.339-4.519-0.982-6.656c0.644-2.139,0.982-4.38,0.982-6.657S18.07,52.138,17.427,50
		c0.644-2.138,0.982-4.378,0.982-6.655c0-2.277-0.339-4.518-0.982-6.656c0.644-2.138,0.982-4.379,0.982-6.656
		c0-2.277-0.339-4.518-0.982-6.656c0.489-1.626,0.802-3.311,0.924-5.026c1.715-0.122,3.399-0.435,5.025-0.924
		c2.139,0.644,4.378,0.982,6.656,0.982c2.277,0,4.518-0.339,6.656-0.982c2.139,0.644,4.379,0.982,6.657,0.982
		S47.862,18.07,50,17.426c2.138,0.644,4.378,0.982,6.656,0.982s4.518-0.339,6.656-0.982c2.138,0.644,4.379,0.982,6.655,0.982
		c2.277,0,4.518-0.338,6.656-0.982c1.626,0.49,3.311,0.803,5.025,0.924c0.122,1.715,0.436,3.4,0.925,5.026
		c-0.644,2.138-0.982,4.379-0.982,6.656S81.931,34.55,82.574,36.688z"/>
</g>
</g></g><g transform="translate(56,56) scale(0.84, 0.84)"><g transform=" translate(0,100) scale(1,-1) " style="fill: rgb(0, 0, 0);">
<path d="M100.061,99.984V0h-100l0.028,72.369C0.088,87.602,12.27,100,27.226,100h45.528c4.682,0,11.508,0,17.171-0.016
	C95.574,99.984,100.061,99.984,100.061,99.984z"/>
</g></g><g transform="translate(896,56) scale(0.84, 0.84)"><g transform=" translate(0,100) scale(1,-1)  translate(100, 0) scale(-1,1) " style="fill: rgb(0, 0, 0);">
<path d="M100.061,99.984V0h-100l0.028,72.369C0.088,87.602,12.27,100,27.226,100h45.528c4.682,0,11.508,0,17.171-0.016
	C95.574,99.984,100.061,99.984,100.061,99.984z"/>
</g></g><g transform="translate(56,896) scale(0.84, 0.84)"><g transform="" style="fill: rgb(0, 0, 0);">
<path d="M100.061,99.984V0h-100l0.028,72.369C0.088,87.602,12.27,100,27.226,100h45.528c4.682,0,11.508,0,17.171-0.016
	C95.574,99.984,100.061,99.984,100.061,99.984z"/>
</g></g><g transform="translate(364,364) scale(0.308,0.308)" width="308" height="308"><svg
   xmlns:dc="http://purl.org/dc/elements/1.1/"
   xmlns:cc="http://creativecommons.org/ns#"
   xmlns:rdf="http://www.w3.org/1999/02/22-rdf-syntax-ns#"
   xmlns:svg="http://www.w3.org/2000/svg"
   xmlns="http://www.w3.org/2000/svg"
   xmlns:sodipodi="http://sodipodi.sourceforge.net/DTD/sodipodi-0.dtd"
   xmlns:inkscape="http://www.inkscape.org/namespaces/inkscape"
   version="1.1"
   width="1000"
   height="1000"
   viewBox="0 0 1000 1000"
   id="Layer_1"
   xml:space="preserve"
   inkscape:version="0.48.5 r10040"
   sodipodi:docname="share-circle.svg"><sodipodi:namedview
     pagecolor="#ffffff"
     bordercolor="#666666"
     borderopacity="1"
     objecttolerance="10"
     gridtolerance="10"
     guidetolerance="10"
     inkscape:pageopacity="0"
     inkscape:pageshadow="2"
     inkscape:window-width="2160"
     inkscape:window-height="1377"
     id="namedview6"
     showgrid="false"
     inkscape:zoom="0.236"
     inkscape:cx="-311.44068"
     inkscape:cy="500"
     inkscape:window-x="-8"
     inkscape:window-y="-8"
     inkscape:window-maximized="1"
     inkscape:current-layer="Layer_1" /><metadata
     id="metadata9"><rdf:RDF><cc:Work
         rdf:about=""><dc:format>image/svg+xml</dc:format><dc:type
           rdf:resource="http://purl.org/dc/dcmitype/StillImage" /><dc:title /></cc:Work></rdf:RDF></metadata><defs
     id="defs7" /><g
     id="g3753"><path
       transform="translate(300.84746,330.50847)"
       d="m 686.44069,169.49153 a 487.28815,487.28815 0 1 1 -974.57629,0 487.28815,487.28815 0 1 1 974.57629,0 z"
       sodipodi:ry="487.28815"
       sodipodi:rx="487.28815"
       sodipodi:cy="169.49153"
       sodipodi:cx="199.15254"
       id="path2983"
       style="fill:#ffffff;fill-rule:evenodd;stroke:none"
       sodipodi:type="arc" /><path
       style="fill:#2c89a0"
       id="path3"
       d="M 500,-0.0402804 C 224.30114,-0.0402804 0,224.26086 0,499.95972 0,775.67872 224.30114,1000 500,1000 775.69886,1000 1000,775.67872 1000,499.95972 1000,224.26086 775.69886,-0.0402804 500,-0.0402804 z M 368.76662,499.09369 c 0,5.03505 -0.50351,9.94925 -1.22856,14.78289 l 210.40442,103.017 c 18.00532,-18.93177 43.38194,-30.79433 71.57818,-30.79433 54.60002,0 98.84799,44.24797 98.84799,98.84798 0,54.60002 -44.24797,98.84798 -98.84799,98.84798 -54.60001,0 -98.84798,-44.24796 -98.84798,-98.84798 0,-5.03504 0.50351,-9.94924 1.22855,-14.78289 L 341.49682,567.14735 c -18.00532,18.93176 -43.38194,30.79432 -71.57819,30.79432 -54.60001,0 -98.84798,-44.24796 -98.84798,-98.84798 0,-54.60001 44.24797,-98.84798 98.84798,-98.84798 28.31709,0 53.79441,11.9834 71.81987,31.05615 L 551.84081,329.41271 c -0.68476,-4.7128 -1.16813,-9.50616 -1.16813,-14.42036 0,-54.60002 44.24797,-98.84799 98.84798,-98.84799 54.60002,0 98.84799,44.24797 98.84799,98.84799 0,54.60001 -44.24797,98.84798 -98.84799,98.84798 -28.31708,0 -53.79441,-11.98341 -71.81986,-31.05615 L 367.59849,484.67333 c 0.7049,4.73294 1.16813,9.50616 1.16813,14.42036 z" /></g></svg></g></g></svg>